<svg id="_x33_0" enable-background="new 0 0 64 64" height="512" viewBox="0 0 64 64" width="512" xmlns="http://www.w3.org/2000/svg"><g><g><g><path d="m62 50.38v11.62h-6v-12h6z" fill="#dfb28b"/></g><g><path d="m52 50v12h-6v-12h4z" fill="#dfb28b"/></g><g><path d="m36 50h6v12h-6z" fill="#dfb28b"/></g><g><path d="m26 50h6v12h-6z" fill="#dfb28b"/></g><g><path d="m16 50h6v12h-6z" fill="#dfb28b"/></g><g><path d="m8 50h4v12h-6v-12z" fill="#dfb28b"/></g><g><path d="m56 56v6h-4v-6-6h4z" fill="#d3a06c"/></g><g><path d="m46 56v6h-4v-6-6h4z" fill="#d3a06c"/></g><g><path d="m36 56v6h-4v-6-6h4z" fill="#d3a06c"/></g><g><path d="m26 56v6h-4v-6-6h4z" fill="#d3a06c"/></g><g><path d="m16 56v6h-4v-6-6h4z" fill="#d3a06c"/></g><g><path d="m6 56v6h-4v-12h4z" fill="#d3a06c"/></g><g><path d="m20.27 42.2c-.56-.63-1-1.38-1.27-2.2l-.81-2.42c-.22-.68-.58-1.29-1.04-1.81 1.09-.45 1.85-1.52 1.85-2.77 0-1.66-1.34-3-3-3-.04 0-.07 0-.11 0l-.89-8h-1.43c-.37 0-.74.11-1.06.3l-7.51 4.7-3-5 3.86-8.37c.5-1.07 1.18-2.05 2-2.87.28-.28.58-.55.9-.8 1.22-.96 2.67-1.64 4.24-1.96l2-6 .88.88c1.36 1.36 2.12 3.2 2.12 5.12 2.57 1.29 4.57 3.49 5.61 6.17l3.39 8.82c-.33.91-.92 1.7-1.7 2.28l-1.5 1.13c-.5.38-.8.97-.8 1.6v2c0 1.1.45 2.1 1.17 2.83.73.72 1.73 1.17 2.83 1.17 1.26 0 2.44-.59 3.2-1.6l1.05-1.4c.49-.65 1.16-1.14 1.94-1.4l1.06-.35c1.12 1.12 1.75 2.65 1.75 4.24v.02c0 1.4.48 2.74 1.36 3.81l-1.36.68v.76c0 2.71 1.08 5.32 3 7.24l8.06-1.24c.85-.13 1.64-.44 2.32-.89.41 1.07.62 2.21.62 3.37v2.76h-4-4-6c-2.45-1.23-4-3.73-4-6.47v-.53c0-1.38-.56-2.63-1.46-3.54-.91-.9-2.16-1.46-3.54-1.46-2.42 0-4.44 1.72-4.9 4h-.76c-.37 0-.74.07-1.07.2z" fill="#cf9e76"/></g><g><path d="m27 22.99-3.39-8.82c-1.04-2.68-3.04-4.88-5.61-6.17 0-1.92-.76-3.76-2.12-5.12l-.88-.88c2.74.01 5.37.81 7.59 2.22 2.23 1.42 4.07 3.46 5.23 5.96l2.86 6.13c-1.71.63-2.99 2.17-3.23 4.07l-.19 1.51c-.05.38-.13.75-.26 1.1z" fill="#b27946"/></g><g><path d="m15 2-2 6c-1.57.32-3.02 1-4.24 1.96-.32.25-.62.52-.9.8l-2.86-4.76 1.12-.89c2.51-2.01 5.63-3.11 8.85-3.11z" fill="#b27946"/></g><g><path d="m40.67 20.12c1.45 2.41 4.05 3.88 6.86 3.88h15.47v12h-4.12c-1.72 0-3.25-1.1-3.79-2.74l-.14-.41c-.48-1.43-1.67-2.46-3.09-2.76h-.01c-.14-.46-.4-.88-.73-1.21-.54-.54-1.29-.88-2.12-.88-1.31 0-2.42.83-2.82 2h-.01-1.78c-1.96 0-3.63 1.41-3.95 3.34l-.27 1.66c-.11.63-.51 1.17-1.08 1.46l-1.73.86c-.88-1.07-1.36-2.41-1.36-3.81v-.02c0-1.59-.63-3.12-1.75-4.24l-1.06.35c-.78.26-1.45.75-1.94 1.4l-1.05 1.4c-.76 1.01-1.94 1.6-3.2 1.6-1.1 0-2.1-.45-2.83-1.17-.72-.73-1.17-1.73-1.17-2.83v-2c0-.63.3-1.22.8-1.6l1.5-1.13c.78-.58 1.37-1.37 1.7-2.28.13-.35.21-.72.26-1.1l.19-1.51c.24-1.9 1.52-3.44 3.23-4.07.54-.2 1.12-.31 1.73-.31h.59l1.38-1.84c1.05-1.4 1.62-3.11 1.62-4.86 0-.72.58-1.3 1.3-1.3.44 0 .85.22 1.09.58 1.05 1.58 1.61 3.43 1.61 5.33v2.09h-.76c-1.37 0-2.63.77-3.24 2 0 .55.22 1.05.59 1.41.36.37.86.59 1.41.59h.18c.75 0 1.45-.23 2.03-.64l.01.01z" fill="#ccd1d9"/></g><g><path d="m42 16-.31 1.26c-.23.88-.76 1.62-1.48 2.1-.58.41-1.28.64-2.03.64h-.18c-.55 0-1.05-.22-1.41-.59-.37-.36-.59-.86-.59-1.41.61-1.23 1.87-2 3.24-2h.76z" fill="#aab2bd"/></g><g><path d="m32 43.53c0 2.74 1.55 5.24 4 6.47h-4-6c0-1.23-.69-2.35-1.79-2.89l-2.21-1.11v-3c0-.34.03-.68.1-1 .46-2.28 2.48-4 4.9-4 1.38 0 2.63.56 3.54 1.46.9.91 1.46 2.16 1.46 3.54z" fill="#e6e9ed"/></g><g><path d="m12 50h-4v-8-2.77c0-.42.05-.83.15-1.23.27-1.13.91-2.12 1.78-2.83.9-.74 2.04-1.17 3.3-1.17 1.13 0 2.19.36 3.06.99.31.23.61.49.86.78.46.52.82 1.13 1.04 1.81l.81 2.42c.27.82.71 1.57 1.27 2.2-.89.35-1.59 1.11-1.84 2.07l-.43 1.73h4l2.21 1.11c1.1.54 1.79 1.66 1.79 2.89h-4-6z" fill="#ffeaa7"/></g><g><path d="m18.43 44.27c.25-.96.95-1.72 1.84-2.07.33-.13.7-.2 1.07-.2h.76c-.07.32-.1.66-.1 1v3h-4z" fill="#ff826e"/></g><g><path d="m16 30c1.66 0 3 1.34 3 3 0 1.25-.76 2.32-1.85 2.77-.25-.29-.55-.55-.86-.78-.87-.63-1.93-.99-3.06-.99-1.26 0-2.4.43-3.3 1.17-.57-.54-.93-1.32-.93-2.17 0-1.66 1.34-3 3-3 .77 0 1.47.3 2 .78.5-.46 1.16-.75 1.89-.78z" fill="#ff826e"/></g><g><path d="m8.15 38c-.1.4-.15.81-.15 1.23v2.77h-4l.27-1.09c.43-1.71 1.97-2.91 3.73-2.91z" fill="#ff826e"/></g><g><path d="m40.44 33.34c.32-1.93 1.99-3.34 3.95-3.34h1.78.01c-.12.31-.18.65-.18 1v1.39c0 1.01.5 1.94 1.34 2.5l1.66 1.11 1.66-1.11c.84-.56 1.34-1.49 1.34-2.5v-1.39c0-.32-.05-.63-.15-.91h.01c1.42.3 2.61 1.33 3.09 2.76l.14.41c.54 1.64 2.07 2.74 3.79 2.74h4.12v14h-7-4-2v-2.76c0-1.16-.21-2.3-.62-3.37-.68.45-1.47.76-2.32.89l-8.06 1.24c-1.92-1.92-3-4.53-3-7.24v-.76l1.36-.68 1.73-.86c.57-.29.97-.83 1.08-1.46z" fill="#ecc19c"/></g><g><path d="m52 31v1.39c0 1.01-.5 1.94-1.34 2.5l-1.66 1.11-1.66-1.11c-.84-.56-1.34-1.49-1.34-2.5v-1.39c0-.35.06-.69.18-1 .4-1.17 1.51-2 2.82-2 .83 0 1.58.34 2.12.88.33.33.59.75.73 1.21.1.28.15.59.15.91z" fill="#dfb28b"/></g></g><g><circle cx="44" cy="36" r="1"/><circle cx="32" cy="22" r="1"/><circle cx="12" cy="14" r="1"/><circle cx="26" cy="42" r="1"/><circle cx="12" cy="38" r="1"/><path d="m11 43h2v4h-2z"/><path d="m38.175 19h-.175v2h.175c.587 0 1.148-.119 1.67-.322 1.624 2.666 4.561 4.322 7.684 4.322h15.471v-2h-15.471c-2.444 0-4.745-1.302-6.002-3.398l-.018-.03c.541-.565.946-1.268 1.146-2.07l.626-2.502h-2.281v-1.092c0-2.1-.616-4.134-1.781-5.883-.428-.642-1.145-1.025-1.916-1.025-1.27 0-2.303 1.033-2.303 2.303 0 1.524-.503 3.036-1.418 4.255l-1.082 1.442h-.086c-.406 0-.8.047-1.185.125l-2.505-5.367c-2.483-5.32-7.881-8.758-13.752-8.758-3.432 0-6.799 1.181-9.479 3.326l-1.8 1.439 2.932 4.886c-.663.768-1.236 1.62-1.669 2.56l-4.085 8.85 3.796 6.327 8.377-5.235c.159-.1.342-.152.53-.152h.531l.689 6.198c-.275.089-.543.2-.794.347-.607-.356-1.295-.546-2-.546-2.206 0-4 1.794-4 4 0 .75.218 1.458.599 2.078-.514.573-.922 1.239-1.197 1.973-1.965.244-3.608 1.655-4.099 3.617l-.584 2.332h4.281v6h-6v14h62v-14h-12v-1.764c0-1.019-.153-2.021-.443-2.991 1.508-1.256 2.443-3.143 2.443-5.245h-2c0 2.4-1.722 4.407-4.094 4.772l-7.542 1.16c-1.528-1.699-2.364-3.872-2.364-6.175v-.139l2.536-1.268c.855-.427 1.46-1.246 1.618-2.19l.275-1.653c.242-1.453 1.487-2.507 2.96-2.507h.611v1.395c0 1.34.666 2.584 1.781 3.328l2.219 1.479 2.219-1.479c1.115-.744 1.781-1.989 1.781-3.328v-.662c.452.373.809.858 1 1.43l.14.419c.681 2.044 2.588 3.418 4.743 3.418h4.117v-2h-4.117c-1.293 0-2.437-.824-2.846-2.051l-.14-.419c-.521-1.561-1.767-2.772-3.315-3.273-.65-1.331-2.004-2.257-3.582-2.257-1.474 0-2.75.81-3.444 2h-1.168c-2.455 0-4.529 1.757-4.932 4.178l-.275 1.652c-.053.315-.254.588-.54.73l-.951.476c-.445-.763-.69-1.638-.69-2.551 0-1.357-.388-2.653-1.104-3.769 1.869-.814 3.104-2.647 3.104-4.716h-2c0 1.363-.869 2.569-2.163 3l-1.968.656c-.97.323-1.806.926-2.418 1.743l-1.05 1.4c-.564.752-1.462 1.201-2.401 1.201-.462 0-.894-.113-1.285-.301l2.992-2.992-1.414-1.414-2.992 2.992c-.188-.391-.301-.823-.301-1.285v-2c0-.313.149-.612.4-.8l1.502-1.126c1.295-.971 2.153-2.45 2.354-4.056l.189-1.514c.249-1.998 1.956-3.504 3.969-3.504h1.086l1.682-2.242c.309-.412.579-.851.813-1.308l3.005 1.147v.42c-1.664.084-3.143 1.033-3.895 2.536l1.789.895c.447-.893 1.344-1.448 2.342-1.448h1.483l-.004.017c-.292 1.168-1.336 1.983-2.54 1.983zm8.825 12c0-1.103.897-2 2-2s2 .897 2 2v1.395c0 .67-.333 1.292-.891 1.664l-1.109.739-1.109-.74c-.558-.371-.891-.994-.891-1.663zm-22.461-17.185c-.251-.654-.558-1.278-.908-1.872l2.772-2.31c.181.316.353.638.509.971l1.068 2.289-3.184 1.592zm.731-5.842-2.798 2.331c-.58-.698-1.236-1.329-1.957-1.888l1.869-3.114c1.084.739 2.059 1.637 2.886 2.671zm-13.041-.822c-.01.003-.02.007-.031.01l-1.688-3.375c.991-.357 2.023-.591 3.074-.703zm6.72-.009c-.145-1.409-.641-2.74-1.453-3.888 1.099.217 2.159.571 3.157 1.05zm-12.207-1.255c.609-.487 1.261-.913 1.942-1.283l1.626 3.252c-.79.37-1.532.826-2.21 1.367l-1.793-2.988zm5.258 25.113c.621 0 1.066.284 1.331.521l.669.603.669-.602c.265-.238.71-.522 1.331-.522 1.103 0 2 .897 2 2 0 .601-.268 1.153-.71 1.526-1.105-.954-2.526-1.526-4.06-1.526-1.112 0-2.154.296-3.059.809-.111-.252-.171-.525-.171-.809 0-1.103.897-2 2-2zm-6.714 10c.264-.854.909-1.51 1.717-1.813-.001.014-.003.029-.003.043v1.77zm3.714-1.77c0-2.332 1.898-4.23 4.23-4.23 1.823 0 3.436 1.163 4.013 2.893l.808 2.424c.188.565.449 1.093.762 1.59-.649.531-1.137 1.262-1.352 2.123l-.742 2.97h5.044l2 1c.442.221.77.579.982 1h-15.745zm10.281 5.77.122-.485c.194-.779.828-1.352 1.598-1.485v1.97zm13.812 4h-6.219c-.288-1.197-1.078-2.22-2.215-2.789l-1.659-.829v-2.382c0-2.206 1.794-4 4-4s4 1.794 4 4v.528c0 2.071.771 3.993 2.093 5.472zm21.907 12h-2v-10h2zm-8-4h4v4h-4zm4-2h-4v-4h4zm-6 6h-2v-10h2zm-34-6h-4v-4h4zm-4 2h4v4h-4zm6-6h2v10h-2zm8 4h-4v-4h4zm-4 2h4v4h-4zm6-6h2v10h-2zm8 4h-4v-4h4zm-4 2h4v4h-4zm6-6h2v10h-2zm4 6h4v4h-4zm4-2h-4v-4h4zm-38-4h2v10h-2zm54 10v-4h4v4zm4-6h-4v-4h4zm-36.298-30.526-1.503 1.126c-.751.564-1.199 1.461-1.199 2.4v2c0 2.757 2.243 5 5 5 1.565 0 3.061-.748 4-2l1.051-1.401c.367-.49.869-.852 1.451-1.045l.416-.139c.689.877 1.082 1.943 1.082 3.1 0 1.201.314 2.38.895 3.42l-.895.447v1.375c0 3.003 1.169 5.826 3.293 7.95l.358.358 8.559-1.317c.548-.084 1.068-.236 1.56-.437.147.629.23 1.272.23 1.924v1.765h-12.732c-2.017-1.092-3.268-3.165-3.268-5.472v-.528c0-3.309-2.691-6-6-6-2.607 0-4.824 1.673-5.65 4h-.008c-.228 0-.451.02-.67.056-.3-.424-.558-.875-.724-1.373l-.808-2.424c-.143-.428-.342-.822-.566-1.199.89-.746 1.426-1.855 1.426-3.06 0-1.934-1.38-3.551-3.207-3.92l-.678-6.102c2.206-.114 4.129-1.547 4.834-3.662l-1.897-.633c-.463 1.386-1.754 2.317-3.214 2.317h-2.264c-.563 0-1.113.158-1.59.456l-6.65 4.156-2.204-3.673 3.642-7.89c1.205-2.61 3.607-4.504 6.425-5.068l.569-.114 1.665-4.996c1.01 1.142 1.569 2.591 1.569 4.129v.618l.553.276c2.356 1.178 4.174 3.18 5.12 5.638l3.237 8.418c-.277.594-.679 1.126-1.208 1.524zm1.961-5.137-1.145-2.978 3.308-1.654.532 1.14c-1.289.767-2.265 2.006-2.695 3.492zm10.337-10.034c0-.268.406-.392.555-.168.662.994 1.092 2.105 1.298 3.265l-2.149-.82c.192-.742.296-1.508.296-2.277z"/></g></g></svg>