<?xml version="1.0"?>
<svg xmlns="http://www.w3.org/2000/svg" xmlns:xlink="http://www.w3.org/1999/xlink" xmlns:svgjs="http://svgjs.com/svgjs" version="1.1" width="512" height="512" x="0" y="0" viewBox="0 0 512 512" style="enable-background:new 0 0 512 512" xml:space="preserve" class=""><g transform="matrix(1,0,0,1,0,0)"><defs xmlns="http://www.w3.org/2000/svg"><linearGradient id="linear-gradient" x1="256" y1="496" x2="256" y2="16" gradientUnits="userSpaceOnUse"><stop stop-opacity="1" stop-color="#ff0002" offset="0.009652509652509652"/><stop stop-opacity="1" stop-color="#0200f2" offset="0.48455598455598453"/><stop stop-opacity="1" stop-color="#fd0012" offset="1"/></linearGradient></defs><path xmlns="http://www.w3.org/2000/svg" d="M352.53,116.219C328.112,92.862,293.831,80,256,80s-72.112,12.862-96.53,36.219C133.648,140.918,120,175.422,120,216c0,67.161,37.25,107.369,53.267,121.54A8.052,8.052,0,0,1,176,343.561V392a8,8,0,0,0,2.343,5.657L192,411.314V432a8,8,0,0,0,0,16v16a8,8,0,0,0,2.343,5.657l24,24A8,8,0,0,0,224,496h64a8,8,0,0,0,5.657-2.343l24-24A8,8,0,0,0,320,464a8,8,0,0,0,0-16V411.314l13.657-13.657A8,8,0,0,0,336,392V343.561a8.054,8.054,0,0,1,2.734-6.022C354.75,323.369,392,283.161,392,216,392,175.422,378.352,140.918,352.53,116.219ZM272,448a8,8,0,0,0,0,16h28.687l-16,16H227.314L208,460.687V448h32a8,8,0,0,0,0-16H208V416h96v32Zm-8-48H248V359.826c5.132.233,10.868.233,16,0Zm64.133-74.444a24.057,24.057,0,0,0-8.133,18v45.126L308.686,400H280V358.127a60.441,60.441,0,0,0,15.968-4.939c12.479-6.169,14.343-15,14.343-19.712C310.311,322.236,299.677,312,288,312c-18.876,0-23.942,20.694-24,31.81-2.46.123-5.122.19-8,.19s-5.54-.067-8-.19c-.058-11.116-5.124-31.81-24-31.81-11.677,0-22.311,10.236-22.311,21.476,0,4.713,1.864,13.543,14.343,19.712A60.441,60.441,0,0,0,232,358.127V400H203.314L192,388.687V343.561a24.055,24.055,0,0,0-8.132-18C169.476,312.822,136,276.656,136,216c0-36.1,11.94-66.611,34.53-88.219C191.956,107.287,222.31,96,256,96s64.044,11.287,85.47,31.781C364.06,149.389,376,179.9,376,216,376,276.656,342.524,312.822,328.133,325.556Zm-47.978,16.222C280.589,337.365,282.2,328,288,328c2.89,0,6.311,2.968,6.311,5.476,0,1.68-2.032,3.688-5.435,5.371A39.635,39.635,0,0,1,280.155,341.778Zm-48.309,0a39.666,39.666,0,0,1-8.722-2.931c-3.4-1.683-5.435-3.691-5.435-5.371,0-2.508,3.421-5.476,6.311-5.476C229.809,328,231.414,337.383,231.846,341.778ZM208,192v24h24a8,8,0,0,1,0,16H208v24h24a8,8,0,0,1,0,16H200a8,8,0,0,1-8-8V184a8,8,0,0,1,8-8h32a8,8,0,0,1,0,16Zm112-8v80a8,8,0,0,1-14.86,4.116L272,212.883V264a8,8,0,0,1-16,0V184a8,8,0,0,1,14.86-4.116L304,235.117V184a8,8,0,0,1,16,0ZM248,56V24a8,8,0,0,1,16,0V56a8,8,0,0,1-16,0ZM96,224a8,8,0,0,1-8,8H56a8,8,0,0,1,0-16H88A8,8,0,0,1,96,224ZM98.343,77.657a8,8,0,0,1,11.314-11.314l24,24a8,8,0,0,1-11.314,11.314Zm35.314,268.686a8,8,0,0,1,0,11.314l-24,24a8,8,0,0,1-11.314-11.314l24-24A8,8,0,0,1,133.657,346.343ZM464,224a8,8,0,0,1-8,8H424a8,8,0,0,1,0-16h32A8,8,0,0,1,464,224ZM378.343,101.657a8,8,0,0,1,0-11.314l24-24a8,8,0,0,1,11.314,11.314l-24,24a8,8,0,0,1-11.314,0Zm35.314,268.686a8,8,0,0,1-11.314,11.314l-24-24a8,8,0,0,1,11.314-11.314Z" style="fill:url(#linear-gradient)" fill=""/></g></svg>
