<svg id="Capa_1" enable-background="new 0 0 512 512" height="512" viewBox="0 0 512 512" width="512" xmlns="http://www.w3.org/2000/svg"><g><path d="m341.333 68.267c-57.232-5.723-96.597 6.991-123.444 29.377h-132.758c-82.429 56.708-77.788 173.899-76.598 192.489 9.286 145.067 132.825 221.867 247.467 221.867s238.18-76.8 247.467-221.867c1.505-23.516 8.533-204.8-162.134-221.866z" fill="#fc9f63"/><path d="m341.333 68.267c-57.232-5.723-96.597 6.991-123.444 29.377h-132.758c-82.429 56.708-77.788 173.899-76.598 192.489 9.286 145.067 132.825 221.867 247.467 221.867s238.18-76.8 247.467-221.867c1.505-23.516 8.533-204.8-162.134-221.866z" fill="#fc9f63"/><path d="m213.11 88.284-47.627-72.977c-29.677-10.002-61.783-6.34-88.095 8.768-5.658 3.249-9.137 9.275-9.121 15.799.088 37.164 19.388 73.275 53.89 93.195 11.003 6.353 22.661 10.527 34.48 12.687z" fill="#98db7c"/><path d="m226.106 25.787h-38.317c-.904-.558-1.82-1.104-2.746-1.639-6.334-3.657-12.886-6.591-19.56-8.84-.435 1.409-.787 2.85-1.026 4.324-1.655 10.197 1.718 20.646 9.023 27.951 10.454 10.454 18.56 22.925 23.864 36.603-13.303 12.285-24.438 27.241-33.217 44.645-2.72 5.392-5.213 11.044-7.49 16.926 8.281 1.514 16.64 2.048 24.912 1.615l44.161.146c.13-.202.265-.4.396-.601z" fill="#77cc7d"/><path d="m257.771 75.524c-4.368-24.133-11.452-47.735-21.144-70.349-1.934-4.513-7.268-6.467-11.66-4.271l-32.516 16.258c-5.21 2.605-6.336 9.548-2.218 13.666 17.041 17.041 28.893 38.386 34.428 61.559z" fill="#a46a5a"/><path d="m341.333 68.267c-33.679-3.368-61.164-.344-83.562 7.27v10.986l-35.019 13.431-41.196 47.409c-33.094 75.505-10.89 176.904-10.89 176.904l85.334 187.733c114.642 0 238.18-76.8 247.467-221.867 1.505-23.516 8.533-204.8-162.134-221.866z" fill="#fc9f63"/><g fill="#ff835d"><path d="m341.333 68.267c-13.645-1.365-26.264-1.669-37.951-1.057 4.628.225 9.372.568 14.257 1.057 170.667 17.067 163.639 198.351 162.133 221.867-8.662 135.309-116.723 211.215-224.251 220.815l.479 1.051c114.642 0 238.18-76.8 247.467-221.867 1.505-23.516 8.533-204.8-162.134-221.866z"/><path d="m454.625 147.519h18.265c-23.081-39.007-62.965-72.394-131.557-79.253-9.24-.924-17.979-1.367-26.31-1.367-.012 0-.024 0-.036 0-164.058.025-156.317 172.073-148.039 234.815.553 4.195 4.382 7.157 8.584 6.654 4.281-.512 7.309-4.423 6.746-8.697-1.767-13.406-3.525-32.065-3.436-52.824.157-36.611 6.234-87.561 34.288-122.375 10.539-13.078 23.688-23.226 39.083-30.161 17.605-7.931 38.727-11.954 62.778-11.958v-.131l.034.131c7.872 0 16.207.434 24.772 1.291 51.173 5.116 89.646 26.557 114.828 63.875z"/></g></g></svg>