<svg id="Icons" height="512" viewBox="0 0 60 60" width="512" xmlns="http://www.w3.org/2000/svg"><path d="m59 22c0-5-4-8-10-5s-10 0-7-5 1-11-5-11c-8 0-11 6-9 13s1 12-9 12-18 0-18 7c0 6 5 6 12 8 8.6 2.457 2 13 15 11 10.917-1.68 6 7 14 7 6 0 12-2 12-9 0-8-10-11-4-17 5.385-5.385 9-6 9-11zm-40 9c-4.545 0-8.839 0-11.45.7a1 1 0 0 1 -.52-1.932c2.87-.768 7.288-.768 11.97-.768a1 1 0 0 1 0 2zm18-25c-1.309 0-3.047.236-3.9 1.362-.818 1.084-.928 3.052-.3 5.264a1 1 0 0 1 -1.923.55c-.816-2.855-.589-5.413.622-7.018 1.073-1.412 2.972-2.158 5.501-2.158a1 1 0 0 1 0 2z"/><path d="m8.3 19c4.991 0 9.7-4.4 9.7-9.373s-4.711-8.614-9.7-8.614-7.3 3.643-7.3 8.614 2.307 9.373 7.3 9.373zm0-14.987a1 1 0 0 1 0 2c-.969 0-2.3 0-2.3 3.614a1 1 0 0 1 -2 0c0-5.614 3.235-5.614 4.3-5.614z"/></svg>