<?xml version="1.0" encoding="iso-8859-1"?>
<!-- Generator: Adobe Illustrator 18.0.0, SVG Export Plug-In . SVG Version: 6.00 Build 0)  -->
<!DOCTYPE svg PUBLIC "-//W3C//DTD SVG 1.1//EN" "http://www.w3.org/Graphics/SVG/1.1/DTD/svg11.dtd">
<svg version="1.1" id="Capa_1" xmlns="http://www.w3.org/2000/svg" xmlns:xlink="http://www.w3.org/1999/xlink" x="0px" y="0px"
	 viewBox="0 0 297.5 297.5" style="enable-background:new 0 0 297.5 297.5;" xml:space="preserve">
<g id="XMLID_33_">
	<g>
		<rect x="49.91" y="225.652" style="fill:#734502;" width="197.69" height="27.64"/>
		<path style="fill:#734502;" d="M247.6,117.442v50.279h-76.85c0.51-0.989,0.96-2.02,1.34-3.08c2.39,0.78,4.94,1.21,7.58,1.21
			c13.69,0,24.83-11.35,24.83-25.3v-23.109H247.6z"/>
		<path style="fill:#734502;" d="M126.76,167.721H49.91v-50.279h43.1v21.939c0,13.95,11.13,25.3,24.83,25.3
			c2.51,0,4.93-0.39,7.22-1.1C125.51,165.021,126.08,166.402,126.76,167.721z"/>
		<rect x="49.91" y="186.462" style="fill:#F0D3A7;" width="197.69" height="20.46"/>
		<path style="fill:#F0D3A7;" d="M185.76,117.442v23.109c0,3.561-2.79,6.561-6.09,6.561c-3.3,0-6.09-3-6.09-6.561
			c0-5.17-4.19-9.37-9.37-9.37c-5.17,0-9.37,4.2-9.37,9.37v15.46c0,3.55-2.79,6.561-6.09,6.561c-3.3,0-6.09-3.011-6.09-6.561v-16.63
			c0-5.17-4.19-9.37-9.37-9.37c-5.17,0-9.37,4.2-9.37,9.37c0,3.55-2.78,6.561-6.08,6.561c-3.31,0-6.09-3.011-6.09-6.561v-21.939
			H185.76z"/>
		<path style="fill:#682045;" d="M161.809,82.101c1.63,5.33-1.3,10.95-6.52,12.551c-0.93,0.29-1.9,0.43-2.86,0.43
			c-4.34,0-8.27-2.95-9.569-7.18c-0.79-2.591-0.54-5.33,0.71-7.71c1.239-2.351,3.3-4.07,5.81-4.83c0.94-0.29,1.9-0.431,2.86-0.431
			C156.58,74.931,160.52,77.882,161.809,82.101z"/>
		<path d="M287.88,255.322c5.18,0,9.37,4.199,9.37,9.37c0,5.18-4.191,9.369-9.37,9.369H9.62c-5.17,0-9.37-4.189-9.37-9.369
			c0-5.171,4.2-9.37,9.37-9.37h21.55v-147.25c0-5.17,4.2-9.37,9.37-9.37h86.64c-0.899-1.67-1.66-3.44-2.24-5.32
			c-2.239-7.35-1.519-15.13,2.051-21.91c3.58-6.809,9.59-11.79,16.92-14.029c2.71-0.83,5.51-1.25,8.33-1.25
			c1.19,0,2.37,0.09,3.529,0.229c1.66-3.95,4.4-8.939,8.851-13.88c8.2-9.1,24-19.77,52.83-19.07c5.17,0.13,9.26,4.431,9.13,9.601
			c-0.13,5.18-4.4,9.279-9.6,9.14c-16.949-0.43-29.67,3.68-37.819,12.2c-3.65,3.82-5.57,7.77-6.52,10.29
			c3.21,3.25,5.681,7.3,7.09,11.93c2.341,7.65,1.341,15.54-2.149,22.07h79.39c5.17,0,9.37,4.2,9.37,9.37v147.25H287.88z
			 M247.6,253.292v-27.64H49.91v27.64H247.6z M247.6,206.922v-20.46H49.91v20.46H247.6z M247.6,167.721v-50.279h-43.1v23.109
			c0,13.95-11.14,25.3-24.83,25.3c-2.64,0-5.19-0.43-7.58-1.21c-0.38,1.061-0.83,2.091-1.34,3.08H247.6z M185.76,140.552v-23.109
			h-74.01v21.939c0,3.55,2.78,6.561,6.09,6.561c3.3,0,6.08-3.011,6.08-6.561c0-5.17,4.2-9.37,9.37-9.37c5.18,0,9.37,4.2,9.37,9.37
			v16.63c0,3.55,2.79,6.561,6.09,6.561c3.3,0,6.09-3.011,6.09-6.561v-15.46c0-5.17,4.2-9.37,9.37-9.37c5.18,0,9.37,4.2,9.37,9.37
			c0,3.561,2.79,6.561,6.09,6.561C182.97,147.112,185.76,144.112,185.76,140.552z M155.29,94.652
			c5.22-1.601,8.149-7.221,6.52-12.551c-1.29-4.22-5.229-7.17-9.569-7.17c-0.96,0-1.92,0.141-2.86,0.431
			c-2.51,0.76-4.57,2.479-5.81,4.83c-1.25,2.38-1.5,5.119-0.71,7.71c1.3,4.229,5.23,7.18,9.569,7.18
			C153.39,95.082,154.36,94.942,155.29,94.652z M49.91,167.721h76.85c-0.68-1.319-1.25-2.7-1.7-4.14c-2.29,0.71-4.71,1.1-7.22,1.1
			c-13.7,0-24.83-11.35-24.83-25.3v-21.939h-43.1V167.721z"/>
	</g>
	<g>
	</g>
</g>
<g>
</g>
<g>
</g>
<g>
</g>
<g>
</g>
<g>
</g>
<g>
</g>
<g>
</g>
<g>
</g>
<g>
</g>
<g>
</g>
<g>
</g>
<g>
</g>
<g>
</g>
<g>
</g>
<g>
</g>
</svg>
