<?xml version="1.0" encoding="iso-8859-1"?>
<!-- Generator: Adobe Illustrator 19.0.0, SVG Export Plug-In . SVG Version: 6.00 Build 0)  -->
<svg version="1.1" id="Layer_1" xmlns="http://www.w3.org/2000/svg" xmlns:xlink="http://www.w3.org/1999/xlink" x="0px" y="0px"
	 viewBox="0 0 512 512" style="enable-background:new 0 0 512 512;" xml:space="preserve">
<rect x="79.969" y="397.459" style="fill:#997668;" width="59.425" height="93.623"/>
<g>
	<rect x="79.969" y="397.459" style="opacity:0.2;fill:#222222;enable-background:new    ;" width="29.713" height="93.623"/>
	<path style="opacity:0.3;fill:#222222;enable-background:new    ;" d="M79.966,397.457v48.12
		c9.501,2.447,19.458,3.749,29.712,3.749c10.255,0,20.211-1.302,29.713-3.749v-48.12H79.966z"/>
</g>
<path style="fill:#218649;" d="M210.576,330.139c0-55.725-22.718-309.22-100.898-309.22C31.498,20.92,8.78,274.415,8.78,330.139
	c0,55.722,45.173,100.895,100.898,100.895S210.576,385.861,210.576,330.139z"/>
<g>
	<path style="opacity:0.2;fill:#222222;enable-background:new    ;" d="M178.309,111.546c-3.527,12.083-6.845,25.132-9.926,39.163
		c-16.289,74.144-21.558,152.903-21.558,179.431c0,29.267,10.61,56.098,28.177,76.866c21.755-18.509,35.574-46.068,35.574-76.866
		C210.576,296.393,202.243,190.128,178.309,111.546z"/>
	<path style="opacity:0.2;fill:#222222;enable-background:new    ;" d="M109.678,20.92C31.498,20.92,8.78,274.415,8.78,330.139
		c0,55.722,45.173,100.895,100.898,100.895V20.92z"/>
</g>
<g>
	<path style="fill:#77BC1F;" d="M46.446,355.416c-2.147,0-4.3-0.783-5.993-2.366c-3.542-3.311-3.732-8.867-0.42-12.41l26.536-28.397
		c3.312-3.541,8.868-3.73,12.41-0.419c3.542,3.311,3.732,8.867,0.42,12.41l-26.536,28.397
		C51.133,354.481,48.792,355.416,46.446,355.416z"/>
	<path style="fill:#77BC1F;" d="M151.037,146.295c-2.826,0-5.602-1.363-7.296-3.885l-21.852-32.532
		c-2.704-4.025-1.633-9.48,2.392-12.183c4.025-2.705,9.481-1.633,12.184,2.393l21.852,32.532c2.704,4.025,1.633,9.48-2.392,12.183
		C154.423,145.811,152.72,146.295,151.037,146.295z"/>
	<path style="fill:#77BC1F;" d="M76.881,127.929c-1.132,0-2.284-0.22-3.394-0.686c-4.471-1.878-6.575-7.023-4.698-11.494
		l17.937-42.744c1.877-4.47,7.021-6.572,11.494-4.699c4.471,1.878,6.575,7.023,4.698,11.494l-17.937,42.744
		C83.57,125.905,80.312,127.929,76.881,127.929z"/>
	<path style="fill:#77BC1F;" d="M64.393,244.098c-2.942,0-5.816-1.477-7.476-4.164L38.98,210.926
		c-2.551-4.123-1.274-9.535,2.851-12.085c4.125-2.551,9.536-1.275,12.085,2.851L71.853,230.7c2.551,4.123,1.274,9.535-2.851,12.085
		C67.564,243.674,65.969,244.098,64.393,244.098z"/>
	<path style="fill:#77BC1F;" d="M133.855,409.555c-2.057,0-4.122-0.718-5.789-2.181c-3.644-3.199-4.005-8.747-0.805-12.392
		l25.755-29.34c3.198-3.643,8.746-4.005,12.391-0.805c3.644,3.199,4.005,8.747,0.807,12.392l-25.755,29.339
		C138.721,408.544,136.295,409.555,133.855,409.555z"/>
	<path style="fill:#77BC1F;" d="M151.035,281.239c-3.318,0-6.491-1.889-7.976-5.097l-17.169-37.14
		c-2.035-4.402-0.117-9.62,4.285-11.654c4.402-2.035,9.62-0.116,11.654,4.285l17.169,37.14c2.035,4.402,0.117,9.62-4.285,11.654
		C153.52,280.977,152.267,281.239,151.035,281.239z"/>
</g>
<rect x="372.605" y="397.459" style="fill:#997668;" width="59.425" height="93.623"/>
<g>
	<rect x="372.605" y="397.459" style="opacity:0.2;fill:#222222;enable-background:new    ;" width="29.712" height="93.623"/>
	<path style="opacity:0.3;fill:#222222;enable-background:new    ;" d="M372.61,397.457v48.12
		c9.501,2.447,19.458,3.749,29.712,3.749c10.255,0,20.211-1.302,29.713-3.749v-48.12H372.61z"/>
</g>
<path style="fill:#218649;" d="M503.22,330.139c0-55.725-22.718-280.261-100.898-280.261S301.424,274.415,301.424,330.139
	c0,55.722,45.173,100.895,100.898,100.895S503.22,385.861,503.22,330.139z"/>
<path style="opacity:0.2;fill:#222222;enable-background:new    ;" d="M301.424,330.139c0,55.722,45.173,100.895,100.898,100.895
	V49.878C324.141,49.878,301.424,274.415,301.424,330.139z"/>
<g>
	<path style="fill:#77BC1F;" d="M386.371,160.621c-3.588,0-6.956-2.216-8.253-5.783l-13.303-36.61
		c-1.657-4.559,0.697-9.595,5.254-11.25c4.557-1.655,9.595,0.695,11.251,5.253l13.302,36.61c1.655,4.559-0.697,9.595-5.254,11.25
		C388.379,160.45,387.368,160.621,386.371,160.621z"/>
	<path style="fill:#77BC1F;" d="M451.106,278.829c-1.594,0-3.21-0.434-4.66-1.345c-4.107-2.578-5.345-7.998-2.766-12.105
		l21.072-33.56c2.578-4.106,7.997-5.345,12.105-2.766c4.107,2.578,5.345,7.998,2.766,12.105l-21.072,33.56
		C456.883,277.373,454.026,278.829,451.106,278.829z"/>
	<path style="fill:#77BC1F;" d="M426.928,198.914c-2.657,0-5.284-1.201-7.01-3.485c-2.924-3.869-2.16-9.375,1.708-12.299
		l29.657-22.421c3.869-2.924,9.374-2.159,12.298,1.708c2.924,3.869,2.16,9.375-1.709,12.299l-29.657,22.421
		C430.63,198.335,428.771,198.914,426.928,198.914z"/>
	<path style="fill:#77BC1F;" d="M379.715,271.157c-1.179,0-2.376-0.239-3.526-0.743c-4.44-1.949-6.459-7.129-4.509-11.57
		l15.982-36.397c1.949-4.44,7.128-6.459,11.57-4.509c4.44,1.949,6.459,7.129,4.509,11.57l-15.982,36.397
		C386.314,269.197,383.092,271.157,379.715,271.157z"/>
	<path style="fill:#77BC1F;" d="M464,390.017c-3.116,0-6.134-1.662-7.725-4.594l-19.902-36.678
		c-2.312-4.262-0.733-9.591,3.53-11.905c4.262-2.316,9.593-0.733,11.906,3.53l19.902,36.678c2.312,4.262,0.732,9.591-3.53,11.905
		C466.849,389.675,465.414,390.017,464,390.017z"/>
	<path style="fill:#77BC1F;" d="M373.776,402.53c-2.015,0-4.04-0.69-5.693-2.099c-3.69-3.147-4.13-8.688-0.985-12.378l18.799-22.048
		c3.147-3.689,8.689-4.13,12.378-0.985c3.69,3.147,4.13,8.688,0.985,12.378l-18.799,22.048
		C378.725,401.484,376.258,402.53,373.776,402.53z"/>
</g>
<path style="opacity:0.2;fill:#222222;enable-background:new    ;" d="M363.643,150.709c-4.552-20.716-9.604-39.348-15.116-55.784
	c-35.423,68.538-47.104,195.263-47.104,235.215c0,36.092,18.966,67.74,47.462,85.572c22.38-21.681,36.315-52.028,36.315-85.572
	C385.201,303.612,379.933,224.853,363.643,150.709z"/>
<rect x="236.303" y="397.459" style="fill:#997668;" width="59.425" height="93.623"/>
<g>
	<rect x="236.303" y="397.459" style="opacity:0.2;fill:#222222;enable-background:new    ;" width="29.712" height="93.623"/>
	<path style="opacity:0.3;fill:#222222;enable-background:new    ;" d="M236.301,397.457v48.12
		c9.501,2.447,19.458,3.749,29.712,3.749c10.255,0,20.212-1.302,29.713-3.749v-48.12H236.301z"/>
</g>
<path style="fill:#77BC1F;" d="M366.91,330.139c0-55.725-22.718-309.22-100.897-309.22c-78.179,0-100.898,253.495-100.898,309.22
	c0,55.722,45.173,100.895,100.898,100.895C321.737,431.035,366.91,385.861,366.91,330.139z"/>
<g>
	<path style="opacity:0.2;fill:#218649;enable-background:new    ;" d="M266.013,20.92c-78.179,0-100.898,253.495-100.898,309.22
		c0,55.722,45.173,100.895,100.898,100.895V20.92z"/>
	<path style="fill:#218649;" d="M213.82,175.322c-2.009,0-4.027-0.685-5.679-2.086c-3.697-3.139-4.149-8.679-1.01-12.375
		l29.107-34.285c3.14-3.697,8.678-4.149,12.375-1.011c3.697,3.139,4.15,8.679,1.01,12.375l-29.107,34.285
		C218.78,174.27,216.307,175.322,213.82,175.322z"/>
	<path style="fill:#218649;" d="M301.43,106.982c-2.626,0-5.224-1.173-6.953-3.411l-23.181-29.994
		c-2.965-3.836-2.259-9.35,1.578-12.317c3.836-2.963,9.351-2.258,12.316,1.579l23.181,29.994c2.965,3.836,2.259,9.35-1.578,12.317
		C305.195,106.384,303.304,106.982,301.43,106.982z"/>
	<path style="fill:#218649;" d="M313.798,387.777c-2.34,0-4.673-0.93-6.401-2.769c-3.32-3.533-3.147-9.09,0.388-12.41l28.345-26.627
		c3.535-3.321,9.092-3.147,12.412,0.387c3.32,3.533,3.147,9.09-0.388,12.41l-28.345,26.627
		C318.114,386.988,315.954,387.777,313.798,387.777z"/>
	<path style="fill:#218649;" d="M237.515,394.717c-2.424,0-4.837-0.999-6.572-2.954l-25.726-29.005
		c-3.218-3.628-2.886-9.177,0.742-12.395c3.627-3.217,9.177-2.886,12.394,0.743l25.726,29.005c3.218,3.628,2.886,9.177-0.742,12.395
		C241.667,393.988,239.586,394.717,237.515,394.717z"/>
	<path style="fill:#218649;" d="M295.503,258.015c-1.899,0-3.812-0.612-5.42-1.878c-3.812-2.997-4.473-8.516-1.477-12.328
		l29.7-37.787c2.996-3.814,8.517-4.473,12.328-1.477c3.812,2.996,4.473,8.516,1.477,12.328l-29.7,37.787
		C300.68,256.866,298.104,258.015,295.503,258.015z"/>
	<path style="fill:#218649;" d="M230.735,290.764c-3.215,0-6.311-1.772-7.853-4.842l-19.699-39.213
		c-2.176-4.333-0.428-9.61,3.904-11.786c4.332-2.175,9.61-0.43,11.786,3.905l19.699,39.213c2.176,4.333,0.428,9.61-3.904,11.786
		C233.405,290.462,232.06,290.764,230.735,290.764z"/>
	<path style="fill:#218649;" d="M319.225,333.421c-3.109,0-6.12-1.653-7.715-4.574l-17.715-32.453
		c-2.324-4.257-0.756-9.59,3.499-11.914c4.258-2.325,9.591-0.755,11.914,3.499l17.715,32.453c2.324,4.257,0.756,9.59-3.499,11.914
		C322.088,333.076,320.646,333.421,319.225,333.421z"/>
	<path style="fill:#218649;" d="M288.658,178.453c-1.982,0-3.976-0.667-5.617-2.036c-3.725-3.103-4.227-8.641-1.123-12.366
		l21.696-26.029c3.106-3.724,8.642-4.226,12.366-1.123c3.725,3.103,4.227,8.641,1.123,12.366l-21.696,26.029
		C293.671,177.377,291.173,178.453,288.658,178.453z"/>
</g>
<path style="fill:#1E252B;" d="M490.616,167.024c-20.462-83.559-50.169-125.926-88.294-125.926
	c-24.827,0-46.208,18.174-63.738,54.086c-18.991-55.161-43.305-83.045-72.571-83.045c-32.229,0-58.453,33.813-78.176,100.639
	C168.107,45.974,141.88,12.14,109.678,12.14c-38.123,0-67.846,47.307-88.342,140.609C5.215,226.133,0,303.951,0,330.139
	c0,46.937,29.641,87.076,71.186,102.698v58.243c0,4.85,3.931,8.78,8.78,8.78h59.425c4.849,0,8.78-3.93,8.78-8.78v-58.209
	c14.845-5.556,28.403-14.323,39.714-25.841c11.085,11.262,24.577,20.144,39.636,25.807v58.243c0,4.85,3.931,8.78,8.78,8.78h59.425
	c4.849,0,8.78-3.93,8.78-8.78v-58.243c10.787-4.056,20.77-9.764,29.642-16.816c8.862,7.045,18.675,12.634,29.114,16.612v58.448
	c0,4.85,3.931,8.78,8.78,8.78h59.993c4.849,0,8.78-3.93,8.78-8.78v-58.244C482.359,417.214,512,377.076,512,330.139
	C512,300.835,506.195,230.638,490.616,167.024z M130.611,482.3H88.746v-44.497c6.778,1.315,13.775,2.012,20.932,2.012
	c7.098,0,14.102-0.682,20.933-2.003C130.611,437.813,130.611,482.3,130.611,482.3z M109.678,422.255
	c-50.794,0-92.118-41.323-92.118-92.116c0-24.548,5.269-102.348,20.927-173.623C56.453,74.738,81.735,29.7,109.678,29.7
	c26.825,0,51.35,41.85,69.152,117.873c-0.39,1.712-0.777,3.434-1.16,5.177c-16.12,73.384-21.336,151.202-21.336,177.39
	c0,23.585,7.484,45.453,20.2,63.359C159.159,411.843,135.138,422.255,109.678,422.255z M286.945,482.3H245.08v-44.497
	c6.778,1.315,13.774,2.012,20.932,2.012s14.154-0.698,20.933-2.012V482.3z M266.013,422.255c-50.794,0-92.118-41.323-92.118-92.115
	c0-24.548,5.269-102.348,20.927-173.623C212.787,74.738,238.07,29.7,266.013,29.7c27.943,0,53.225,45.039,71.19,126.817
	c15.658,71.275,20.927,149.075,20.927,173.623C358.13,380.932,316.806,422.255,266.013,422.255z M423.254,482.3h-42.433V437.68
	c7.024,1.398,14.218,2.135,21.5,2.135c7.158,0,14.154-0.698,20.933-2.012V482.3z M402.322,422.255
	c-20.044,0-39.324-6.474-55.194-18.372c17.736-19.491,28.562-45.377,28.562-73.744c0-26.188-5.215-104.007-21.336-177.39
	c-2.477-11.276-5.09-21.874-7.835-31.804c11.289-29.044,29.876-62.286,55.803-62.286c28.167,0,53.466,39.968,71.237,112.543
	c14.402,58.81,20.88,128.347,20.88,158.939C494.44,380.932,453.116,422.255,402.322,422.255z"/>
<g>
</g>
<g>
</g>
<g>
</g>
<g>
</g>
<g>
</g>
<g>
</g>
<g>
</g>
<g>
</g>
<g>
</g>
<g>
</g>
<g>
</g>
<g>
</g>
<g>
</g>
<g>
</g>
<g>
</g>
</svg>
