<?xml version="1.0"?>
<svg xmlns="http://www.w3.org/2000/svg" xmlns:xlink="http://www.w3.org/1999/xlink" xmlns:svgjs="http://svgjs.com/svgjs" version="1.1" width="512" height="512" x="0" y="0" viewBox="0 0 256 256" style="enable-background:new 0 0 512 512" xml:space="preserve" class=""><g><g xmlns="http://www.w3.org/2000/svg"><g><circle cx="127.934" cy="127.877" fill="#ef8ba2" r="120.974" data-original="#ff4a73" class=""/><path d="m142.73 247.975c-47.99 5.899-96.895-17.502-121.25-62.63-31.733-58.795-9.811-132.172 48.983-163.925 22.856-12.343 47.912-16.567 71.878-13.647-14.543 1.791-29.008 6.269-42.675 13.647-58.795 31.753-80.716 105.13-48.983 163.925 19.391 35.939 54.376 58.094 92.047 62.63z" fill="#f973a3" data-original="#f973a3" class=""/><path d="m185.405 234.328c-22.856 12.343-47.912 16.568-71.878 13.647 14.543-1.791 29.008-6.269 42.675-13.647 58.795-31.734 80.716-105.13 48.983-163.925-19.391-35.939-54.375-58.094-92.047-62.63 47.99-5.899 96.895 17.502 121.25 62.63 31.734 58.795 9.812 132.191-48.983 163.925z" fill="#df84a2" data-original="#ea2a6a" class=""/></g><g fill="#5f266d"><path d="m9.046 89.555c-1.079 2.025-17.488 48.781 8.917 97.692 22.254 41.222 65.109 65.585 110.181 65.585 94.871 0 154.314-101.797 109.761-184.325-52.191-96.674-195.314-83.091-228.859 21.048zm6.877 4.621c23.003-11.865 57.206-19.623 91.854-15.66-2.595 12.025-10.617 25.716-24 40.902-28.774 32.652-42.979 79.034-10.29 111.945-48.07-25.199-74.192-81.853-57.564-137.187zm73.856 30.532c14.454-16.402 23.118-31.499 25.919-45.102 12.143 2.001 23.982 5.385 35.503 10.139-6.945 33.787-24.125 81.843-64.28 142.737-37.979-29.101-26.859-74.052 2.858-107.774zm37.104 120.112c45.462-6.616 77.579-35.862 69.706-78.872-3.821-20.875-5.046-38.217-3.691-51.94 16.494 12.6 32.183 28.444 47.018 47.485-15.222 50.705-61.847 83.874-113.033 83.327zm115.505-93.084c-15.075-18.598-31.187-34.15-48.163-46.55 4.452-21.218 16.863-31.63 38.735-28.792 11.861 24.167 14.597 50.641 9.428 75.342zm-13.985-83.757c-20.891-.854-35.421 9.939-41.145 32.311-9.274-6.217-18.163-11.124-27.021-15.174 3.941-21.969 5.337-48.77-.757-69.859 29.407 8.252 53.629 27.01 68.923 52.722zm-42.809 40.706c-2.25 15.374-1.218 34.979 3.125 58.703 8.115 44.333-32.291 74.278-93.631 70.669-.543-.331-1.072-.668-1.602-1.005 40.15-60.848 57.822-109.353 65.193-143.994 9.184 4.32 18.159 9.528 26.915 15.627zm-35.294-95.618c7.062 18.063 6.18 46.604 2.383 68.814-11.732-4.726-23.758-8.12-36.016-10.153.884-23.831-18.05-38.815-39.506-49.219 22.378-10.812 47.673-14.45 73.139-9.442zm-81.95 14.158c19.961 9.166 40.608 21.349 40.354 43.379-31.469-3.694-63.202 1.718-89.026 12.938 9.624-23.624 26.548-43.249 48.672-56.317z" fill="#5f266d" data-original="#5f266d" class=""/><path d="m37.945 162.253c-.988-1.975-3.391-2.776-5.367-1.789-1.976.988-2.776 3.391-1.789 5.367 1.835 3.67 3.987 7.009 6.394 9.924 1.406 1.702 3.927 1.944 5.631.537 1.703-1.407 1.943-3.928.537-5.631-2.022-2.449-3.841-5.278-5.406-8.408z" fill="#5f266d" data-original="#5f266d" class=""/><path d="m33.176 148.993c-1.899-7.665-2.862-16.345-2.862-25.799 0-8.906.892-15.267.913-15.412.317-2.186-1.198-4.215-3.385-4.532-2.184-.319-4.215 1.198-4.532 3.385-1.575 10.763-1.635 29.204 2.102 44.283.531 2.144 2.7 3.452 4.844 2.92s3.452-2.701 2.92-4.845z" fill="#5f266d" data-original="#5f266d" class=""/></g></g></g></svg>
