<svg id="Layer_1" enable-background="new 0 0 512 512" height="512" viewBox="0 0 512 512" width="512" xmlns="http://www.w3.org/2000/svg"><g id="XMLID_1_"><g id="XMLID_2775_"><path id="XMLID_819_" d="m5 187.9c0 85.2 78.7 205.5 147.8 205.5s147.8-120.3 147.8-205.5c0-60.3-48.2-102.9-147.8-102.9s-147.8 42.6-147.8 102.9z" fill="#db3529"/><path id="XMLID_1094_" d="m300.6 187.9c0 85.2-78.7 205.5-147.8 205.5-12.8 0-25.9-4.1-38.7-11.3 56.3-36 114.5-134.8 114.5-202.2 0-.1 0-.2 0-.4-.1-20.8-19.3-36.2-39.7-32.2-10.1 2-20.9 4.6-34.2 4.4l-14.4-17.8c-42.3 20-65.4 0-65.4 0l41.2-46.7c11.3-1.4 23.6-2.2 36.7-2.2 99.6 0 147.8 42.6 147.8 102.9z" fill="#b4271e"/><path id="XMLID_818_" d="m208.1 89.9s29.1 17.1 30.3 50.9c0 0-35.3.9-55.9-20.4 0 0-.7 17.5-27.8 31.3-27-13.8-27.6-31.3-27.6-31.3-20.6 21.3-52.1 13.5-52.1 13.5 1.2-33.8 26.5-44 26.5-44-22.4-16.7-15.7-42.8-15.7-42.8 17.5 18.8 60.4 20.8 60.4 20.8l-7.5-62.9h16l13.3 62.9c37.4-17.5 75-2.6 75-2.6s-19.7 9.3-34.9 24.6z" fill="#399349"/><g id="XMLID_817_"><path id="XMLID_1783_" d="m28.3 180.3h29.4v10h-29.4z" fill="#ffcb5d" transform="matrix(.164 .986 -.986 .164 218.708 112.392)"/></g><g id="XMLID_816_"><path id="XMLID_1782_" d="m83.8 228.6h29.7v10h-29.7z" fill="#ffcb5d" transform="matrix(.217 .976 -.976 .217 305.263 86.603)"/></g><g id="XMLID_815_"><path id="XMLID_1781_" d="m67.2 294.8h27.5v10h-27.5z" fill="#ffcb5d" transform="matrix(.351 .936 -.936 .351 333.256 118.799)"/></g><g id="XMLID_814_"><path id="XMLID_1780_" d="m122.6 180.3h29.1v10h-29.1z" fill="#ffcb5d" transform="matrix(.11 .994 -.994 .11 306.144 28.528)"/></g><g id="XMLID_813_"><path id="XMLID_1779_" d="m134.8 281.2h27.4v10h-27.4z" fill="#ffcb5d" transform="matrix(.243 .97 -.97 .243 390.108 72.666)"/></g><g id="XMLID_812_"><path id="XMLID_1778_" d="m119.1 341.6h24.1v10h-24.1z" fill="#ffcb5d" transform="matrix(.366 .931 -.931 .366 405.649 97.702)"/></g><g id="XMLID_811_"><path id="XMLID_1777_" d="m187 219h10v26h-10z" fill="#ffcb5d"/></g><path id="XMLID_810_" d="m223.1 259.3c-29.1 80 3.7 220 68.6 243.7 64.9 23.6 180.1-62.5 209.2-142.6 20.6-56.6-10.1-113.1-103.7-147.2s-153.5-10.5-174.1 46.1z" fill="#db3529"/><path id="XMLID_1146_" d="m500.9 360.5c-29.1 80-144.3 166.2-209.2 142.6-9.6-3.5-18.6-9.6-26.7-17.7 66.5-10.4 159.9-86 183.9-151.9 15.4-42.4-50-27.7-80-45.5l-.9-33.4s-38.5 8.9-60.8-22l70-25.8c6.4 1.9 13.1 4 19.9 6.5 93.7 34 124.4 90.5 103.8 147.2z" fill="#b4271e"/><path id="XMLID_809_" d="m447.5 236.7s16.6 16.8 6.2 48.9c0 0-28.6-1.9-40.7-29 0 0-13.9 27.6-44 31.2-20.7-22.2-8.1-50.2-8.1-50.2-26.7 12.9-53.6-5.2-53.6-5.2 12.7-31.3 39.9-32.3 39.9-32.3-10-11.2-32.5-23.8-32.5-23.8s45-17.9 82.1 18.5l28.5-42.7 15 5.5-23 44.7c64.9 1.3 73.1 36.9 73.1 36.9s-18.2-5.8-42.9-2.5z" fill="#399349"/><g id="XMLID_808_"><path id="XMLID_1776_" d="m254.7 255.2h10v29.4h-10z" fill="#ffcb5d" transform="matrix(.983 .183 -.183 .983 53.744 -42.944)"/></g><g id="XMLID_807_"><path id="XMLID_1775_" d="m290.5 319.5h10v29.7h-10z" fill="#ffcb5d" transform="matrix(.992 .13 -.13 .992 45.973 -35.577)"/></g><g id="XMLID_806_"><path id="XMLID_1774_" d="m242.4 371.5h27.5v10h-27.5z" fill="#ffcb5d" transform="matrix(.01 1 -1 .01 630.133 116.751)"/></g><g id="XMLID_805_"><path id="XMLID_1773_" d="m343.1 287.5h10v29.1h-10z" fill="#ffcb5d" transform="matrix(.972 .236 -.236 .972 81.182 -73.666)"/></g><g id="XMLID_804_"><path id="XMLID_1772_" d="m316.3 383.2h10v27.4h-10z" fill="#ffcb5d" transform="matrix(.995 .104 -.104 .995 42.81 -31.129)"/></g><g id="XMLID_803_"><path id="XMLID_1771_" d="m275.3 446.6h24.1v10h-24.1z" fill="#ffcb5d" transform="matrix(.026 1 -1 .026 731.395 152.783)"/></g><g id="XMLID_802_"><path id="XMLID_1770_" d="m378.6 351.7h10v26h-10z" fill="#ffcb5d" transform="matrix(.94 .342 -.342 .94 147.855 -109.188)"/></g><g id="XMLID_801_"><path id="XMLID_1769_" d="m347.2 439.9h10v23.8h-10z" fill="#ffcb5d" transform="matrix(.897 .442 -.442 .897 235.657 -109.08)"/></g></g></g></svg>