<svg id="Layer_1" enable-background="new 0 0 100 100" height="512" viewBox="0 0 100 100" width="512" xmlns="http://www.w3.org/2000/svg"><path d="m82.57 59.92c0 21.73-14.58 33.29-32.57 33.29s-32.57-11.56-32.57-33.29 14.58-53.14 32.57-53.14 32.57 31.41 32.57 53.14z" fill="#fabd00"/><path d="m50 94.72c-20.38 0-34.07-13.98-34.07-34.79 0-21.5 14.63-54.65 34.07-54.65s34.07 33.14 34.07 54.64c0 20.81-13.69 34.8-34.07 34.8zm0-86.44c-17.15 0-31.07 31.25-31.07 51.64 0 19.31 12.2 31.79 31.07 31.79s31.07-12.48 31.07-31.79c0-20.39-13.92-51.64-31.07-51.64z" fill="#231f20"/><ellipse id="Shadow" cx="63.62" cy="74.04" opacity=".15" rx="15.25" ry="10.07" transform="matrix(.707 -.707 .707 .707 -33.717 66.671)"/><ellipse id="Lighting" cx="44.65" cy="23.13" fill="#fff" opacity=".4" rx="15.25" ry="10.07" transform="matrix(.707 -.707 .707 .707 -3.278 38.343)"/></svg>