<svg id="Capa_1" enable-background="new 0 0 512 512" height="512" viewBox="0 0 512 512" width="512" xmlns="http://www.w3.org/2000/svg"><g><g><path d="m405.298 242.706c0 .179 0 .357-.001.535-.068 22.023-18.038 39.795-40.062 39.795h-218.47c-22.023 0-39.993-17.772-40.062-39.795-.001-.178-.001-.356-.001-.535 0-57.001 28.155-57.001 28.155-114.013 0-33.454 13.559-63.735 35.478-85.665 21.93-21.919 52.211-35.478 85.665-35.478 66.908 0 121.143 54.235 121.143 121.143 0 57.012 28.155 57.012 28.155 114.013z" fill="#7a6d79"/><path d="m131.607 242.71v.53c.07 22.02 18.04 39.8 40.06 39.8h-25c-22.02 0-39.99-17.78-40.06-39.8v-.53c0-57.01 28.16-57.01 28.16-114.02 0-33.45 13.56-63.73 35.48-85.66 21.93-21.92 52.21-35.48 85.66-35.48 4.22 0 8.39.22 12.5.64-28.46 2.92-54 15.69-73.16 34.84-21.92 21.93-35.48 52.21-35.48 85.66 0 57.01-28.16 57.01-28.16 114.02z" fill="#685e68"/><path d="m364.895 324.308-62.52-14.462c-5.442-1.259-9.296-6.106-9.296-11.691v-58.468c0-6.627-5.373-12-12-12h-50.16c-6.627 0-12 5.373-12 12v58.468c0 5.586-3.854 10.432-9.296 11.691l-62.52 14.462c-26.208 6.062-45.974 27.642-49.718 54.28l-15.302 108.874c-1.269 9.026 5.739 17.088 14.854 17.088h318.127c9.115 0 16.123-8.062 14.854-17.088l-15.304-108.875c-3.745-26.637-23.511-48.217-49.719-54.279z" fill="#ffbd86"/><path d="m281.08 227.687h-50.16c-6.63 0-12 5.37-12 12l.003 58.464c0 5.59-3.85 10.44-9.3 11.7l-62.52 14.46c-26.2 6.06-45.97 27.64-49.71 54.28l-15.31 108.87c-1.27 9.03 5.74 17.09 14.86 17.09h22.32c-6.86-2.1-11.49-8.96-10.44-16.43l13.57-96.53c3.74-26.64 23.51-48.22 49.71-54.28l62.52-14.46c5.45-1.26 9.3-6.11 9.3-11.7v-11.361c0-2.356 2.023-4.177 4.371-3.978 2.54.215 5.11.325 7.706.325 13.21 0 25.77-2.84 37.08-7.94v-48.51c0-6.628-5.373-12-12-12z" fill="#f6a96c"/><path d="m350.789 184.429h-189.578c-15.538 0-28.135-12.596-28.135-28.135 0-15.538 12.596-28.135 28.135-28.135h189.577c15.538 0 28.135 12.596 28.135 28.135 0 15.539-12.596 28.135-28.134 28.135z" fill="#f6a96c"/><path d="m347.517 135.566v50.943c0 49.502-38.875 90.91-88.349 92.58-51.987 1.755-94.684-39.869-94.684-91.463v-52.06c0-12.469 10.108-22.578 22.578-22.578h62.278c4.207 0 8.182-1.926 10.788-5.227l29.479-37.331c3.028-3.835 9.188-1.971 9.582 2.9l2.185 27.02c.577 7.139 6.539 12.639 13.702 12.639h9.864c12.468-.001 22.577 10.107 22.577 22.577z" fill="#fed2a4"/><path d="m268.52 278.29c-3.07.42-6.19.69-9.35.8-51.99 1.75-94.69-39.87-94.69-91.46v-52.06c0-12.47 10.11-22.58 22.58-22.58h25c-12.47 0-22.58 10.11-22.58 22.58v52.06c0 46.3 34.4 84.58 79.04 90.66z" fill="#ffbd86"/><path d="m347.74 315.8v188.75h-183.48v-188.75c8.52 5.85 17.45 10.8 26.65 14.84 50.71 22.32 109.86 17.37 156.83-14.84z" fill="#cb97e7"/><path d="m190.91 330.64v173.91h-26.65v-188.75c8.52 5.85 17.45 10.8 26.65 14.84z" fill="#bd80e1"/><g fill="#ffc344"><path d="m347.517 336.505c8.672 0 15.702-7.03 15.702-15.702 0-8.672-7.03-15.702-15.702-15.702-8.672 0-15.702 7.03-15.702 15.702-.001 8.672 7.03 15.702 15.702 15.702z"/><path d="m164.483 336.505c8.672 0 15.702-7.03 15.702-15.702 0-8.672-7.03-15.702-15.702-15.702-8.672 0-15.702 7.03-15.702 15.702 0 8.672 7.03 15.702 15.702 15.702z"/></g></g><g><path d="m437.347 486.366-15.31-108.868c-3.951-28.145-24.419-51.571-51.487-59.495-1.365-11.502-11.171-20.452-23.034-20.452-8.109 0-15.256 4.185-19.405 10.505l-24.042-5.563c-2.054-.475-3.489-2.281-3.489-4.393v-7.61h64.66c26.142 0 47.477-21.208 47.56-47.3v-.53c0-30.256-7.552-45.546-14.855-60.332-6.842-13.852-13.304-26.935-13.304-53.688-.001-70.932-57.708-128.64-128.641-128.64-34.351 0-66.655 13.38-90.965 37.678-24.295 24.307-37.675 56.611-37.675 90.962 0 26.759-6.462 39.842-13.305 53.693-3.854 7.803-7.839 15.871-10.718 26.35-1.097 3.994 1.252 8.122 5.246 9.219 3.994 1.094 8.122-1.252 9.219-5.246 2.498-9.095 5.997-16.18 9.702-23.679 1.797-3.638 3.609-7.309 5.32-11.224 5.725 7.537 14.377 12.729 24.247 13.877 1.016 25.542 11.613 49.253 30.112 67.137 6.989 6.757 14.775 12.359 23.14 16.722h-63.563c-17.186 0-31.458-13.364-32.494-30.424-.251-4.134-3.795-7.276-7.94-7.032-4.135.251-7.283 3.806-7.032 7.94 1.515 24.962 22.364 44.516 47.466 44.516h64.66v7.61c0 2.111-1.435 3.917-3.491 4.393l-24.04 5.563c-4.149-6.32-11.296-10.505-19.405-10.505-11.863 0-21.669 8.951-23.034 20.453-27.071 7.927-47.536 31.352-51.486 59.492l-15.31 108.87c-.908 6.454 1.023 12.976 5.298 17.893 4.275 4.92 10.467 7.742 16.988 7.742h318.12c6.521 0 12.713-2.822 16.989-7.741 4.275-4.918 6.205-11.44 5.298-17.893zm-89.83-173.816c4.522 0 8.202 3.68 8.202 8.202s-3.68 8.202-8.202 8.202-8.202-3.68-8.202-8.202 3.679-8.202 8.202-8.202zm31.66-134.798c1.711 3.913 3.522 7.582 5.318 11.219 6.842 13.852 13.304 26.935 13.304 53.689v.506c-.057 17.823-14.663 32.324-32.56 32.324h-63.859c9.538-4.992 18.305-11.586 25.952-19.641 16.66-17.545 26.331-40.18 27.549-64.213 9.892-1.136 18.562-6.334 24.296-13.884zm-24.16-1.312v-40.391c9.356 1.957 16.407 10.267 16.407 20.196s-7.051 18.238-16.407 20.195zm-198.034 0c-9.356-1.957-16.407-10.267-16.407-20.196s7.05-18.239 16.407-20.196zm3.967-55.824c-6.806.05-13.162 2.017-18.558 5.388.664-29.359 12.411-56.871 33.25-77.719 21.474-21.464 50.012-33.285 80.358-33.285 61.78 0 112.2 49.555 113.607 111.003-5.396-3.37-11.751-5.337-18.556-5.387-5.189-9.058-14.946-15.178-26.111-15.178h-9.864c-3.231 0-5.966-2.523-6.227-5.743l-2.185-27.021c-.43-5.313-4.004-9.744-9.107-11.288-5.1-1.544-10.534.162-13.837 4.345l-29.479 37.332c-1.192 1.509-2.979 2.375-4.902 2.375h-62.278c-11.166 0-20.923 6.12-26.111 15.178zm36.659 127.368c-16.525-15.977-25.626-37.43-25.626-60.409v-52.06c0-8.314 6.764-15.078 15.078-15.078h62.278c6.542 0 12.62-2.945 16.675-8.079l26.134-33.096 1.75 21.641c.886 10.954 10.188 19.534 21.178 19.534h9.864c8.314 0 15.078 6.764 15.078 15.078v50.942c0 46.176-35.624 83.549-81.102 85.084-23.008.78-44.79-7.588-61.307-23.557zm13.7 69.123c8.897-2.057 15.111-9.873 15.111-19.007v-15.975c9.443 2.941 19.373 4.467 29.542 4.467 1.149 0 2.304-.02 3.459-.059 8.99-.303 17.772-1.824 26.159-4.471v16.038c0 9.134 6.214 16.95 15.109 19.007l21.598 4.998c-42.008 20.71-90.567 20.71-132.575 0zm-28.763 18.186c23.255 11.57 48.352 17.375 73.454 17.375s50.2-5.805 73.454-17.375c2.773 3.438 6.505 6.069 10.786 7.486v9.842c-51.565 33.755-116.916 33.755-168.48 0v-9.842c4.281-1.417 8.013-4.048 10.786-7.486zm-25.786 161.707h-59.82c-2.208 0-4.221-.917-5.668-2.582-1.445-1.663-2.072-3.781-1.765-5.964l15.311-108.872c3.082-21.954 18.834-40.298 39.789-46.875 2.759 4.57 7.049 8.113 12.154 9.921v154.372zm7.723-168.045c-4.522 0-8.202-3.68-8.202-8.202s3.68-8.202 8.202-8.202 8.202 3.68 8.202 8.202-3.679 8.202-8.202 8.202zm256.245 165.463c-1.447 1.665-3.46 2.582-5.668 2.582h-59.82v-66.87c0-4.142-3.358-7.5-7.5-7.5s-7.5 3.358-7.5 7.5v66.87h-168.48v-126.749c25.679 14.819 54.537 22.599 84.24 22.599s58.561-7.779 84.24-22.599v24.879c0 4.142 3.358 7.5 7.5 7.5s7.5-3.358 7.5-7.5v-52.502c5.105-1.808 9.395-5.351 12.154-9.921 20.952 6.574 36.706 24.919 39.789 46.878l15.31 108.87c.307 2.183-.32 4.301-1.765 5.963z"/><path d="m295.098 170.521c4.142 0 7.5-3.358 7.5-7.5v-13.554c0-4.142-3.358-7.5-7.5-7.5s-7.5 3.358-7.5 7.5v13.554c0 4.142 3.358 7.5 7.5 7.5z"/><path d="m216.902 141.967c-4.142 0-7.5 3.358-7.5 7.5v13.554c0 4.142 3.358 7.5 7.5 7.5s7.5-3.358 7.5-7.5v-13.554c0-4.142-3.358-7.5-7.5-7.5z"/><path d="m244.1 189.903c3.559 2.585 7.729 3.878 11.9 3.878s8.341-1.293 11.9-3.878c3.351-2.435 4.094-7.125 1.66-10.476-2.435-3.351-7.125-4.093-10.476-1.66-1.845 1.34-4.322 1.34-6.167 0-3.351-2.435-8.042-1.691-10.476 1.66s-1.692 8.041 1.659 10.476z"/><path d="m280.556 229.803c3.02-2.835 3.168-7.582.333-10.602-2.836-3.019-7.581-3.169-10.602-.333-8.012 7.524-20.563 7.524-28.575 0-3.019-2.834-7.766-2.686-10.602.333-2.835 3.02-2.687 7.766.333 10.602 6.885 6.465 15.721 9.698 24.556 9.698s17.672-3.233 24.557-9.698z"/></g></g></svg>