<svg id="Capa_1" enable-background="new 0 0 512 512" height="512" viewBox="0 0 512 512" width="512" xmlns="http://www.w3.org/2000/svg"><g><g><g fill="#d5938c"><path d="m148.911 372.784 30.258 57.187-30.258 74.529h-58.144c0-71.449 32.989-111.534 58.144-131.716z"/><path d="m302.573 355.442 30.258 74.529-30.258 74.529h-93.146l-30.258-74.529 30.258-74.529z"/><path d="m421.233 504.5h-58.144l-30.258-74.529 30.258-57.187c25.155 20.182 58.144 60.267 58.144 131.716z"/></g><path d="m302.573 355.442h-93.146l-16.229 39.973c19.775 6.78 40.702 10.354 62.136 10.427 0 0 .673.001.683.001 21.702 0 42.858-3.549 62.817-10.349z" fill="#cd847b"/><path d="m209.427 355.442v149.058h-60.516v-131.716c15.518-12.458 28.065-17.342 28.065-17.342z" fill="#abdc94"/><path d="m363.089 372.784v131.716h-60.516v-149.058h32.451s12.547 4.884 28.065 17.342z" fill="#abdc94"/><path d="m460.104 211.604c0-112.543-91.56-204.104-204.104-204.104s-204.104 91.561-204.104 204.104z" fill="#696eb1"/><circle cx="421.235" cy="214.594" fill="#ffbc85" r="46.777"/><path d="m134.968 161.531c0-55.139 20.965-105.38 55.358-143.19-80.423 27.403-138.43 103.685-138.43 193.263h89.011c-3.873-16.06-5.939-32.824-5.939-50.073z" fill="#4c5698"/><path d="m302.573 355.442v44.807c21.552-5.278 41.977-14.223 60.516-26.523v-.942c-15.518-12.458-28.066-17.342-28.066-17.342z" fill="#8ccf75"/><path d="m148.911 372.784v.748c18.558 12.358 38.99 21.348 60.516 26.663v-44.752h-32.451c0-.001-12.547 4.883-28.065 17.341z" fill="#8ccf75"/><path d="m325.413 111.654c.464 4.91.986 9.395 1.527 13.431 1.448 10.819-10.512 18.228-19.657 12.268-22.619-14.74-35.644-32.009-42.904-45.474-3.604-6.685-13.154-6.685-16.758 0-7.259 13.466-20.285 30.734-42.904 45.474-9.145 5.96-21.105-1.449-19.657-12.268.54-4.036 1.063-8.521 1.527-13.431.503-5.325-6.461-7.816-9.422-3.362-12.648 19.023-37.364 46.702-79.624 60.015-3.923 14.389-5.95 29.56-5.769 45.235 1.037 89.365 74.291 161.999 163.662 162.3 90.966.306 164.804-73.343 164.804-164.237 0-14.988-2.019-29.501-5.78-43.297-42.259-13.313-66.976-40.992-79.623-60.015-2.961-4.455-9.925-1.964-9.422 3.361z" fill="#fdd1a3"/><path d="m134.968 161.531c0-3.758.1-7.493.293-11.203-10.633 7.074-23.13 13.383-37.719 17.979 0 .001-.001.003-.001.004-2.213-.321-4.474-.495-6.776-.495-25.834 0-46.777 20.943-46.777 46.777s20.943 46.777 46.777 46.777c2.905 0 5.743-.278 8.501-.785 20.909 66.482 83.156 115.009 156.169 115.255 16.075.054 31.611-2.211 46.304-6.463-95.4-21.063-166.771-106.113-166.771-207.846z" fill="#ffbc85"/><g><g><g><ellipse cx="171.153" cy="245.397" fill="#ff8d9d" rx="31.307" ry="24.931"/></g><g><ellipse cx="340.847" cy="245.397" fill="#ff8d9d" rx="31.307" ry="24.931"/></g></g></g><path d="m272.398 161.81c0 9.056-7.342 16.398-16.398 16.398s-16.398-7.342-16.398-16.398 7.342-19.913 16.398-19.913 16.398 10.857 16.398 19.913z" fill="#ff8d9d"/></g><g><path d="m181.899 208.6v12.798c0 4.142 3.358 7.5 7.5 7.5s7.5-3.358 7.5-7.5v-12.798c0-4.143-3.358-7.5-7.5-7.5s-7.5 3.357-7.5 7.5z"/><path d="m322.601 201.1c-4.142 0-7.5 3.357-7.5 7.5v12.798c0 4.142 3.358 7.5 7.5 7.5s7.5-3.358 7.5-7.5v-12.798c0-4.143-3.358-7.5-7.5-7.5z"/><path d="m232.787 225.943c5.854 6.719 14.315 10.572 23.213 10.572s17.358-3.853 23.214-10.572c2.721-3.123 2.396-7.86-.727-10.582-3.123-2.721-7.86-2.396-10.582.727-3.005 3.449-7.345 5.427-11.905 5.427s-8.899-1.978-11.904-5.427c-2.721-3.123-7.459-3.448-10.582-.727-3.123 2.722-3.448 7.46-.727 10.582z"/><path d="m256 185.708c13.177 0 23.897-10.721 23.897-23.898 0-6.154-2.32-12.691-6.364-17.934-4.648-6.024-11.038-9.479-17.533-9.479s-12.886 3.455-17.533 9.479c-4.045 5.243-6.365 11.779-6.365 17.934 0 13.177 10.721 23.898 23.898 23.898zm0-36.312c4.075 0 8.897 6.729 8.897 12.414 0 4.906-3.991 8.898-8.897 8.898s-8.898-3.992-8.898-8.898c0-5.685 4.824-12.414 8.898-12.414z"/><path d="m408.207 174.144c2.9 11.843 4.531 24.417 4.531 37.46 0 29.636-8.365 59.851-25.989 86.449-2.288 3.453-1.344 8.107 2.109 10.395 3.454 2.288 8.107 1.344 10.395-2.109 7.817-11.797 14.082-24.413 18.728-37.58 1.088.067 2.175.113 3.253.113 29.929 0 54.277-24.349 54.277-54.277 0-11.53-3.625-22.224-9.78-31.025-13.926-104.787-103.744-183.57-209.731-183.57-43.058 0-84.533 12.923-119.94 37.372-3.408 2.354-4.264 7.025-1.91 10.434 2.354 3.408 7.024 4.264 10.434 1.91 32.89-22.712 71.417-34.716 111.416-34.716 92.133 0 171.127 64.072 191.516 152.054-9.512-5.271-20.557-7.66-32.314-6.397-10.183-3.326-19.683-7.649-28.496-12.89-27.587-16.41-39.019-35.328-46.267-44.512-3.383-4.282-8.931-5.856-14.104-4.023-5.518 1.956-8.949 7.189-8.388 13.127.439 4.655.964 9.271 1.56 13.721.598 4.463-4.348 7.451-8.128 4.99-22.106-14.406-34.169-31.2-40.396-42.75-6.43-11.927-23.535-11.923-29.961 0-6.228 11.551-18.291 28.344-40.397 42.75-3.787 2.468-8.725-.531-8.129-4.989.594-4.433 1.119-9.05 1.56-13.721.553-5.858-2.796-11.146-8.388-13.128-5.561-1.97-11.485.004-14.746 4.908-17.859 26.871-43.437 46.487-74.121 56.517-11.677-1.297-22.858 1.163-32.29 6.384 8.804-37.702 28.761-72.33 57.423-99.099 3.027-2.827 3.189-7.573.362-10.6s-7.573-3.189-10.601-.362c-35.827 33.46-59.005 78.354-65.427 126.591-6.154 8.8-9.779 19.494-9.779 31.023 0 29.929 24.349 54.277 54.277 54.277 1.09 0 2.187-.047 3.286-.115 8.524 24.055 22.447 46.117 41.147 64.66 8.167 8.098 16.998 15.279 26.364 21.496-4.904 2.892-10.889 6.839-17.346 12.023-.001 0-.001.001-.002.001-27.805 22.309-60.947 64.284-60.947 137.563 0 4.142 3.358 7.5 7.5 7.5h330.466c4.142 0 7.5-3.358 7.5-7.5 0-73.281-33.143-115.256-60.948-137.564s-.001-.001-.001-.001c-6.392-5.132-12.298-9.042-17.161-11.921 10.532-6.991 20.383-15.206 29.376-24.588 2.866-2.991 2.766-7.738-.225-10.604-2.99-2.866-7.738-2.766-10.604.225-30.811 32.146-72.095 48.445-113.708 48.297-84.834-.274-155.193-69.464-156.188-154.885v-.001c-.147-12.684 1.295-26.168 4.524-39.312 29.791-10.225 55.299-28.832 74.366-54.268-.171 1.421-.35 2.828-.536 4.215-1.164 8.697 3.233 17.033 11.424 20.922 5.457 2.588 11.889 2.737 17.765-.238 12.5-6.329 34.957-26.241 47.408-49.336.801-1.487 2.8-1.397 3.554 0 10.639 19.734 26.868 36.115 45.411 48.199 6.752 4.399 15.17 4.465 21.971.171 6.742-4.256 10.272-11.812 9.214-19.718-.186-1.389-.364-2.795-.536-4.215 19.226 25.586 44.552 44.028 74.367 54.267zm-266.796 215.486v107.37h-43.018c1.786-52.404 22.184-86.278 43.018-107.37zm15-13.191c8.745-6.655 16.22-10.678 20.208-12.611 8.142 4.277 16.599 7.889 25.308 10.789v122.383h-45.516zm60.516 2.409c12.729 2.974 25.768 4.449 38.482 4.493.196 0 .39.001.586.001h.001.014c12.873 0 26.16-1.439 39.063-4.416v118.074h-78.146zm196.679 118.152h-43.017v-107.371c20.834 21.093 41.232 54.967 43.017 107.371zm-58.017-120.562v120.562h-45.516v-122.278c8.788-2.899 17.315-6.506 25.511-10.804 4.028 1.959 11.356 5.933 20.005 12.52zm-304.101-161.844c0-20.721 16.17-37.829 36.608-39.18-2.755 12.818-3.966 25.816-3.822 38.215.154 13.251 1.891 26.983 5.253 40.222-21.088-.656-38.039-18.014-38.039-39.257zm371.013 39.257c3.31-13.1 5.238-27.407 5.238-42.247 0-12.517-1.434-25.015-3.834-36.19 11.195.741 21.428 6.272 28.269 15.01.018.022.036.044.054.067 5.19 6.659 8.285 15.026 8.285 24.104-.001 21.233-16.938 38.586-38.012 39.256z"/></g></g></svg>