<svg id="Capa_1" enable-background="new 0 0 512 512" height="512" viewBox="0 0 512 512" width="512" xmlns="http://www.w3.org/2000/svg"><g><g><g><g fill="#fff1d4"><path d="m117.514 444.364c-8.039 18.437-12.514 38.771-12.514 60.136h50.337l12.471-12.471v-110.017c-21.597 15.592-39.214 36.942-50.294 62.352z"/><path d="m394.485 444.362c-10.795-24.756-28.2-46.393-50.295-62.35v110.016l12.472 12.472h50.338c0-21.366-4.476-41.7-12.515-60.138z"/></g><g><path d="m344.172 382.012c-11.325-8.177-23.889-14.879-37.424-19.725-15.935-5.706-33.078-8.789-50.749-8.789l-74.491 24.085v114.873l12.044 12.044h54.948l7.488-6 7.512 6h93.144v-.018c0-65.972-12.194-120.623-12.472-122.47z" fill="#e8b5b1"/><path d="m255.998 353.498c-32.955 0-63.42 10.644-88.178 28.514h-.012c-7.919 39.811-12.471 78.296-12.471 122.488h38.215c.074-65.613 39.225-122.071 95.433-147.357-10.664-2.387-21.719-3.645-32.987-3.645z" fill="#d6948c"/></g><g><path d="m296.903 417.024h-81.815c-20.055 0-31.91-22.466-20.591-39.021l10.732-15.715 50.771-27.307 50.748 27.306 10.746 15.715c11.318 16.556-.537 39.022-20.591 39.022z" fill="#fff1d4"/><path d="m256 334.981-50.772 27.306c8.914 23.379 26.75 41.892 50.772 54.737 24.02-12.844 41.833-31.359 50.748-54.737z" fill="#ffbf9d"/></g></g><g><g fill="#ffbf9d"><circle cx="75" cy="188" r="45"/><circle cx="437" cy="188" r="45"/></g><g><path d="m338.977 27.6c-16.363-8.456-34.18-14.49-52.978-17.626h-34.574c-22.986 0-44.697 10.564-58.882 28.651l-117.543 149.876 117.543 149.876c14.185 18.087 35.896 28.641 58.882 28.641h34.574c7.06-1.18 13.992-2.76 20.749-4.731 75.326-21.966 130.252-91.49 130.252-173.786z" fill="#ffd4bd"/><path d="m135 188.501c0-21.904 3.901-42.896 11.029-62.329v-46.811h25.576c27.32-36.088 67.849-61.621 114.394-69.386-9.759-1.629-19.779-2.475-30.001-2.475-29.909 0-58.121 7.261-82.978 20.107l-59.938 51.754v46.812l-38.082 62.328c0 82.336 54.98 151.838 130.228 173.786 16.109 4.699 33.145 7.212 50.77 7.212 10.222 0 20.241-.853 30.001-2.482-85.682-14.294-150.999-88.775-150.999-178.516z" fill="#ffbf9d"/></g><g><path d="m338.977 27.6c4.193 17.986 5.725 40.562-2.267 67.233-2.815 9.396 1.826 19.418 10.822 23.327l37.202 16.166c9.127 3.966 15.982 12.641 16.831 24.004 1.27 17.037 15.538 30.171 32.621 30.171h2.814c0-70.055-39.8-130.814-98.023-160.901z" fill="#efedff"/><path d="m175.289 94.833c-1.596-5.325-2.793-10.478-3.684-15.473-3.571-20.02-1.939-37.36 1.416-51.754-58.219 30.088-98.021 90.841-98.021 160.895h2.813c16.404 0 31.248-12.254 32.657-30.648.793-10.345 7.279-19.392 16.795-23.527l37.202-16.166c8.996-3.909 13.637-13.93 10.822-23.327z" fill="#d4d4ff"/></g><g fill="#ff8e9e"><ellipse cx="144.854" cy="237.604" rx="36.021" ry="28.685"/><ellipse cx="366.999" cy="237.604" rx="36.168" ry="28.685"/></g><path d="m322.056 255.125-28.85-20.494c-12.126-8.614-26.981-7.087-37.206.754-10.225-7.841-25.08-9.368-37.206-.754l-28.85 20.494c-15.848 11.258-7.883 36.223 11.556 36.223h35.389c7.201 0 13.827-2.442 19.111-6.535 5.284 4.093 11.91 6.535 19.111 6.535h35.389c19.439 0 27.404-24.965 11.556-36.223z" fill="#efedff"/></g></g><g><path d="m326.4 249.011-28.85-20.494c-12.445-8.84-28.541-9.499-41.549-2.11-13.01-7.389-29.104-6.73-41.549 2.11l-28.851 20.494c-21.786 15.477-10.868 49.837 15.899 49.837h35.389c6.8 0 13.313-1.728 19.111-5.036 5.798 3.308 12.312 5.036 19.111 5.036h35.389c26.723 0 37.721-34.336 15.9-49.837zm-15.9 34.837h-35.389c-5.306 0-10.326-1.716-14.519-4.964-2.703-2.094-6.481-2.095-9.186 0-4.192 3.248-9.213 4.964-14.519 4.964h-35.387c-12.124 0-17.121-15.569-7.213-22.608l28.851-20.494c8.68-6.167 19.788-5.935 28.298.591 2.692 2.065 6.436 2.065 9.128 0 8.51-6.525 19.617-6.758 28.298-.591l28.851 20.494c9.883 7.021 4.941 22.608-7.213 22.608z"/><path d="m185.615 222.638v-14.966c0-4.142-3.358-7.5-7.5-7.5s-7.5 3.358-7.5 7.5v14.966c0 4.142 3.358 7.5 7.5 7.5s7.5-3.358 7.5-7.5z"/><path d="m333.885 200.172c-4.143 0-7.5 3.358-7.5 7.5v14.966c0 4.142 3.357 7.5 7.5 7.5s7.5-3.358 7.5-7.5v-14.966c0-4.142-3.358-7.5-7.5-7.5z"/><path d="m436.947 135.531c-3.919-13.425-9.329-26.406-16.161-38.649-2.017-3.617-6.587-4.914-10.203-2.895-3.617 2.019-4.913 6.587-2.896 10.204 13.016 23.326 20.414 49.566 21.616 76.33-10.886-2.158-19.411-11.377-20.258-22.749-1.019-13.629-8.988-24.965-21.321-30.324l-37.201-16.167c-5.504-2.391-8.353-8.537-6.627-14.295 5.573-18.601 7.27-36.785 5.148-55.173 15.946 10.243 30.366 23.18 42.621 38.529 2.585 3.236 7.304 3.767 10.541 1.181 3.237-2.584 3.766-7.304 1.182-10.541-34.901-43.708-88.586-70.983-147.389-70.982-85.552 0-158.392 57.774-181.018 135.53-29.37.019-52.481 23.836-52.481 52.47 0 28.995 23.469 52.412 52.393 52.483 16.101 55.595 57.231 100.677 110.354 122.241-26.585 13.328-49.393 34.129-65.095 60.214-2.136 3.549-.991 8.158 2.558 10.294s8.157.99 10.294-2.558c6.574-10.922 14.561-20.856 23.662-29.593-5.631 33.034-8.417 63.545-8.785 95.919h-35.187c.72-13.886 3.444-27.516 8.123-40.616 1.393-3.901-.639-8.192-4.54-9.586-3.902-1.393-8.192.64-9.586 4.54-6.099 17.076-9.191 34.962-9.191 53.162 0 4.142 3.358 7.5 7.5 7.5h302c4.143 0 7.5-3.358 7.5-7.5 0-60.356-34.571-115.179-87.719-141.787 53.111-21.569 94.229-66.645 110.328-122.23 28.886-.075 52.391-23.449 52.391-52.483 0-28.738-23.227-52.485-52.553-52.469zm-365.767 89.78c-18.928-1.852-33.68-17.991-33.68-37.311 0-19.236 14.679-35.489 33.742-37.318-4.955 24.524-4.992 50.066-.062 74.629zm91.792-183.661c-1.508 12.994-1.095 25.88 1.25 39.028.98 5.493 2.287 10.98 3.883 16.308 1.726 5.758-1.123 11.904-6.626 14.295l-37.202 16.166c-12.122 5.268-20.278 16.699-21.284 29.833-.907 11.831-9.304 21.116-20.309 23.255 2.548-58.089 33.743-109.157 80.288-138.885zm85.528 455.35h-85.619c.431-37.014 4.107-71.565 11.71-110.562 3.379-2.337 6.851-4.543 10.423-6.586-8.714 21.155 7.04 44.672 30.074 44.672h33.412zm-47.811-114.768 3.292-4.819c6.615 12.053 15.759 22.865 27.13 32.111h-16.024c-13.839 0-22.483-15.461-14.398-27.292zm17.955-9.451c12.078 2.435 24.569 3.719 37.354 3.719 12.778 0 25.261-1.283 37.332-3.715-8.43 14.162-21.094 26.293-37.331 35.647-16.251-9.361-28.924-21.493-37.355-35.651zm89.356 4.625c.249.363 3.425 5.009 3.303 4.83 7.99 11.683-.421 27.289-14.399 27.289h-16.021c11.364-9.246 20.503-20.061 27.117-32.119zm91.303 119.594h-35.217c-.53-38.67-5.034-73.386-8.786-95.967 25.858 24.875 42.061 59.035 44.003 95.967zm-72.344-117.189c3.589 2.049 7.065 4.256 10.439 6.589 3.588 18.046 10.99 60.97 11.687 110.601h-85.585v-72.476h33.403c23.119-.001 38.785-23.603 30.056-44.714zm-70.96-18.311c-92.775 0-169.382-73.319-173.324-165.796 18.957-2.251 33.76-17.518 35.274-37.278.581-7.576 5.296-14.175 12.306-17.222l37.202-16.166c12.465-5.417 18.921-19.328 15.017-32.358-1.433-4.781-2.605-9.706-3.485-14.637-2.749-15.411-2.524-30.426.69-45.801 23.044-11.352 48.949-17.242 76.32-17.242 26.874 0 52.871 5.727 76.334 17.346 4.207 20.212 3.291 39.983-2.806 60.334-3.904 13.031 2.552 26.942 15.018 32.358l37.201 16.166c7.132 3.1 11.746 9.71 12.341 17.683 1.429 19.178 16.502 34.516 35.241 36.807-3.951 92.788-80.85 165.806-173.329 165.806zm184.829-136.222c4.937-24.619 4.898-49.865-.15-74.606 19.115 1.792 33.822 18.08 33.822 37.328 0 19.191-14.475 35.303-33.672 37.278z"/><circle cx="293.415" cy="444.5" r="7.5"/><circle cx="293.415" cy="474.5" r="7.5"/></g></g></svg>