<svg id="Capa_1" enable-background="new 0 0 512 512" height="512" viewBox="0 0 512 512" width="512" xmlns="http://www.w3.org/2000/svg"><g><g><path d="m320.515 72.01c0 35.63-28.89 64.52-64.51 64.52-35.63 0-64.52-28.89-64.52-64.52 0-7.44 1.26-14.6 3.59-21.25 8.78-25.19 32.75-43.26 60.93-43.26s52.14 18.07 60.92 43.26c2.33 6.65 3.59 13.81 3.59 21.25z" fill="#efecef"/><path d="m280.127 131.863c-7.45 3.01-15.6 4.67-24.13 4.67-35.63 0-64.51-28.89-64.51-64.52s28.88-64.51 64.51-64.51c8.53 0 16.68 1.66 24.13 4.66-23.68 9.55-40.39 32.75-40.39 59.85s16.71 50.3 40.39 59.85z" fill="#dddaec"/><path d="m279.511 74.69h-42.757c-73.318 0-132.754 59.436-132.754 132.754v78.742h308.266v-78.742c-.001-73.318-59.437-132.754-132.755-132.754z" fill="#efecef"/><path d="m303.129 76.784c-62.06 11.14-109.14 65.41-109.14 130.66v78.75h-89.99v-78.75c0-73.31 59.43-132.75 132.75-132.75h42.76c8.06 0 15.96.72 23.62 2.09z" fill="#dddaec"/><path d="m258.079 384.22h-4.158c-59.459 0-107.66 48.201-107.66 107.66v12.62h219.477v-12.62c0-59.459-48.2-107.66-107.659-107.66z" fill="#dd636e"/><path d="m282.431 386.99c-47.73 11.04-83.3 53.81-83.3 104.89v12.62h-52.87v-12.62c0-59.46 48.2-107.66 107.66-107.66h4.15c8.38 0 16.54.96 24.36 2.77z" fill="#da4a54"/><path d="m256 461.037c-21.121 0-38.242-17.122-38.242-38.242v-38.242h76.484v38.242c0 21.121-17.122 38.242-38.242 38.242z" fill="#eaac9d"/><path d="m385.485 254.53h5.19c17.64 0 31.93 14.29 31.93 31.92 0 8.81-3.57 16.8-9.35 22.58-5.78 5.77-13.76 9.35-22.58 9.35h-7.01-255.33-7.01c-17.64 0-31.93-14.3-31.93-31.93 0-8.81 3.57-16.79 9.35-22.57s13.76-9.35 22.58-9.35h5.19" fill="#eaac9d"/><path d="m385.475 223.4v73.24c0 35.76-14.49 68.12-37.92 91.56-23.44 23.43-55.8 37.92-91.56 37.92-71.51 0-129.49-57.97-129.49-129.48v-73.24c0-6.81.53-13.5 1.54-20.03.58.01 1.16.02 1.75.02 30.75 0 56.97-19.36 67.13-46.56 12.91 18.78 34.55 31.09 59.07 31.09s46.16-12.31 59.07-31.09c10.16 27.2 36.38 46.56 67.13 46.56.58 0 1.16-.01 1.74-.02 1.01 6.53 1.54 13.22 1.54 20.03z" fill="#ffddce"/><path d="m286.715 422.46c-9.85 2.39-20.14 3.66-30.72 3.66-71.51 0-129.49-57.97-129.49-129.48v-73.24c0-6.81.53-13.5 1.54-20.03.58.01 1.16.02 1.75.02 23.91 0 45.09-11.71 58.1-29.71v122.96c0 60.94 42.11 112.05 98.82 125.82z" fill="#ffcbbe"/><g><path d="m241.265 277.271c0 12.24-6.25 23.02-15.74 29.32-5.56-3.7-12.24-5.85-19.42-5.85s-13.86 2.15-19.42 5.85c-9.49-6.3-15.75-17.08-15.75-29.32 0-19.42 15.75-35.16 35.17-35.16s35.16 15.74 35.16 35.16z" fill="#efecef"/><path d="m341.065 277.271c0 12.24-6.25 23.02-15.74 29.32-5.56-3.7-12.24-5.85-19.42-5.85s-13.86 2.15-19.42 5.85c-9.49-6.3-15.75-17.08-15.75-29.32 0-19.42 15.75-35.16 35.17-35.16s35.16 15.74 35.16 35.16z" fill="#efecef"/><g><path d="m245.905 301.43v2.46c0 11.56-9.38 20.94-20.94 20.94h-36.16c-11.56 0-20.94-9.38-20.94-20.94v-2.46c0-11.57 9.38-20.94 20.94-20.94h36.16c11.56 0 20.94 9.37 20.94 20.94z" fill="#d3effb"/><path d="m323.176 280.488h-36.162c-11.563 0-20.937 9.374-20.937 20.937v2.465c0 11.563 9.374 20.937 20.937 20.937h36.162c11.563 0 20.937-9.374 20.937-20.937v-2.465c0-11.563-9.374-20.937-20.937-20.937z" fill="#d3effb"/><g fill="#b1e4f9"><path d="m218.565 280.49-22.82 44.34h-6.94c-11.56 0-20.94-9.38-20.94-20.94v-2.46c0-11.57 9.38-20.94 20.94-20.94z"/><path d="m316.774 280.488-22.82 44.34h-6.94c-11.56 0-20.94-9.38-20.94-20.94v-2.46c0-11.57 9.38-20.94 20.94-20.94z"/></g></g></g></g><g><path d="m419.764 259.869v-52.429c0-60.335-38.298-111.892-91.86-131.643.066-1.261.11-2.524.11-3.787 0-39.707-32.304-72.01-72.01-72.01-39.712 0-72.02 32.303-72.02 72.01 0 1.803.074 3.609.208 5.408-51.371 20.84-87.698 71.265-87.698 130.022v48.386c-1.056.859-2.077 1.775-3.053 2.751-7.446 7.446-11.547 17.345-11.547 27.874 0 21.742 17.688 39.43 39.43 39.43h.827c7.277 33.331 26.722 62.162 53.433 81.591-9.199 8.521-16.883 18.396-22.897 29.47-1.977 3.64-.628 8.193 3.012 10.17 1.137.618 2.363.911 3.572.911 2.661 0 5.238-1.419 6.598-3.922 5.844-10.761 13.502-20.226 22.794-28.201 6.886 3.902 14.141 7.223 21.699 9.9 1.387 21.314 17.432 38.687 38.141 42.117v29.083h-94.743v-5.12c0-7.343.802-14.691 2.383-21.84.894-4.044-1.659-8.048-5.704-8.943-4.043-.895-8.048 1.659-8.943 5.704-1.816 8.211-2.737 16.649-2.737 25.08v12.62c0 4.142 3.358 7.5 7.5 7.5h219.471c4.143 0 7.5-3.358 7.5-7.5v-12.62c0-32.394-13.284-62.608-36.768-84.361 5.765-4.202 11.249-8.875 16.391-14.015 18.838-18.838 31.506-42.196 37.008-67.624h.813c10.521 0 20.423-4.099 27.883-11.546 7.447-7.446 11.548-17.349 11.548-27.883 0-10.235-3.922-19.568-10.341-26.583zm-220.779-187.859c0-31.436 25.579-57.01 57.02-57.01 31.177 0 56.574 25.159 56.99 56.239-10.733-2.639-21.945-4.049-33.48-4.049h-42.76c-13.079 0-25.743 1.805-37.763 5.169-.001-.116-.007-.233-.007-.349zm-87.49 135.43c0-69.063 56.191-125.25 125.26-125.25h42.76c69.063 0 125.25 56.187 125.25 125.25v42.201c-3.696-1.419-7.654-2.3-11.784-2.539v-23.702c0-7.026-.552-14.151-1.639-21.177-.574-3.703-3.841-6.437-7.589-6.351-.512.009-1.033.018-1.562.018-7.356 0-14.562-1.231-21.416-3.66-3.904-1.384-8.191.661-9.574 4.564-1.384 3.904.66 8.191 4.564 9.574 6.946 2.461 14.177 3.927 21.557 4.374.438 4.225.659 8.462.659 12.657v42.836l-29.425 22.386c-.329-.649-.675-1.287-1.051-1.906.7-3.081 1.061-6.243 1.061-9.446 0-23.523-19.138-42.66-42.66-42.66-23.528 0-42.67 19.137-42.67 42.66 0 2.563.249 5.095.695 7.578-1.952 2.71-3.438 5.774-4.342 9.077h-7.197c-.902-3.296-2.384-6.353-4.328-9.058.451-2.503.702-5.043.702-7.598 0-23.523-19.137-42.66-42.66-42.66-23.528 0-42.67 19.137-42.67 42.66 0 3.189.359 6.343 1.055 9.419-.382.627-.733 1.275-1.066 1.933l-29.425-22.384v-42.836c0-4.195.221-8.433.659-12.661 26.718-1.663 50.864-16.927 63.979-39.93 14.823 15.588 35.496 24.61 57.353 24.61 21.868 0 42.547-9.023 57.364-24.608 3.813 6.696 8.611 12.86 14.196 18.192 2.997 2.861 7.743 2.751 10.604-.245 2.86-2.996 2.75-7.743-.245-10.604-6.996-6.68-12.468-14.961-15.824-23.95-.979-2.621-3.335-4.479-6.112-4.82-2.771-.341-5.512.892-7.096 3.198-11.973 17.43-31.744 27.836-52.888 27.836-21.128 0-40.896-10.407-52.879-27.838-1.584-2.305-4.319-3.535-7.095-3.196-2.776.341-5.131 2.198-6.111 4.817-9.323 24.935-33.478 41.687-60.105 41.687-.538 0-1.059-.009-1.622-.019-3.716-.044-6.967 2.648-7.541 6.353-1.086 7.03-1.637 14.155-1.637 21.178v23.704c-2.557.148-5.067.536-7.505 1.158zm113.471 65.548h-.555c.013-.238.036-.473.036-.714 0-7.358-5.986-13.344-13.344-13.344-7.357 0-13.343 5.986-13.343 13.344 0 .241.023.476.036.714h-8.992c-3.617 0-7.076.686-10.261 1.923 1.202-14.151 13.1-25.302 27.562-25.302 14.26 0 26.032 10.848 27.503 24.725-2.727-.871-5.63-1.346-8.642-1.346zm-49.6 28.437c0-7.409 6.028-13.437 13.437-13.437h36.162c7.409 0 13.437 6.028 13.437 13.437v2.464c0 7.409-6.028 13.437-13.437 13.437h-36.162c-7.409 0-13.437-6.028-13.437-13.437zm77.581 7.5h6.085c.672 3.742 2.076 7.231 4.062 10.314h-14.21c1.987-3.083 3.391-6.572 4.063-10.314zm47.956-49.995c-7.357 0-13.344 5.986-13.344 13.344 0 .241.023.476.036.714h-.581c-3.005 0-5.9.472-8.621 1.34 1.474-13.874 13.249-24.718 27.512-24.718 14.46 0 26.356 11.155 27.553 25.31-3.191-1.242-6.656-1.932-10.282-1.932h-8.967c.013-.238.036-.473.036-.714.001-7.358-5.985-13.344-13.342-13.344zm-27.326 44.96v-2.464c0-7.409 6.028-13.437 13.438-13.437h36.162c7.409 0 13.437 6.028 13.437 13.437v2.464c0 7.409-6.027 13.437-13.437 13.437h-36.162c-7.41 0-13.438-6.028-13.438-13.437zm-176.682-17.44c0-6.522 2.541-12.654 7.153-17.267 4.061-4.061 9.302-6.513 14.952-7.043v34.5c0 4.788.249 9.519.731 14.182-12.73-.824-22.836-11.437-22.836-24.372zm129.3 143.897c9.596 2.137 19.565 3.273 29.795 3.273 10.149 0 20.129-1.101 29.806-3.238-3.386 13.295-15.459 23.158-29.802 23.158-14.346 0-26.426-9.88-29.799-23.193zm132.035 61.533v5.12h-94.726v-29.085c20.68-3.427 36.711-20.769 38.126-42.053 7.524-2.651 14.802-5.957 21.758-9.9 22.204 19.071 34.842 46.457 34.842 75.918zm-15.982-108.984c-6.647 6.644-13.928 12.422-21.702 17.288-.301.159-.592.336-.872.538-18.98 11.659-40.852 17.898-63.684 17.898-67.266 0-121.99-54.72-121.99-121.98v-11.557l26.399 20.084c.671 15.089 13.153 27.159 28.405 27.159h36.162c4.449 0 8.661-1.029 12.415-2.858 1.092 2.791 3.802 4.771 6.98 4.771h23.278c3.175 0 5.883-1.976 6.977-4.763 3.75 1.824 7.956 2.85 12.399 2.85h36.162c15.251 0 27.733-12.07 28.404-27.159l26.4-20.085v11.557c-.001 32.581-12.691 63.215-35.733 86.257zm65.708-79.174c-4.249 4.241-9.776 6.726-15.702 7.102.479-4.682.727-9.413.727-14.184v-34.498c12.393 1.166 22.125 11.621 22.125 24.308-.001 6.528-2.542 12.664-7.15 17.272z"/><path d="m282.927 340.009c-14.849 14.848-39.007 14.848-53.855 0-2.929-2.929-7.678-2.929-10.606 0-2.929 2.929-2.929 7.678 0 10.606 10.348 10.348 23.941 15.522 37.535 15.522s27.186-5.174 37.535-15.522c2.929-2.929 2.929-7.678 0-10.606-2.931-2.929-7.679-2.929-10.609 0z"/><path d="m310.266 205.164-18.955-.998c-4.121-.21-7.667 2.958-7.884 7.096-.218 4.136 2.959 7.666 7.095 7.884l18.955.998c.135.007.268.01.401.01 3.961 0 7.272-3.104 7.482-7.106.219-4.136-2.958-7.666-7.094-7.884z"/><path d="m220.689 204.167-18.955.998c-4.137.218-7.313 3.748-7.096 7.884.211 4.002 3.522 7.106 7.483 7.106.133 0 .267-.003.4-.01l18.955-.998c4.137-.218 7.313-3.748 7.096-7.884-.217-4.138-3.755-7.309-7.883-7.096z"/></g></g></svg>