<svg id="_x33_0" enable-background="new 0 0 64 64" height="512" viewBox="0 0 64 64" width="512" xmlns="http://www.w3.org/2000/svg"><g><g><g><path d="m42 49v13h-24v-8h-6-1c-.55 0-1-.45-1-1v-5.46c0-5.47 4.03-10.12 9.44-10.89l1.7-.24 2.86 8.59 6-3 6 3 2.89-8.68 3.32.37c1.81.2 3.49 1.01 4.77 2.29l5.84 5.84-.05.44-6.46 7.39z" fill="#e6e9ed"/></g><g><path d="m30 42-6 3-2.86-8.59 2.86-.41z" fill="#ccd1d9"/></g><g><path d="m38.89 36.32-2.89 8.68-6-3 6-6z" fill="#ccd1d9"/></g><g><path d="m54 24v-4c0-2.21 1.79-4 4-4 1.1 0 2.1.45 2.83 1.17.72.73 1.17 1.73 1.17 2.83v34.88c0 2.83-2.29 5.12-5.12 5.12-1.22 0-2.39-.43-3.31-1.21l-7.26-6.14 6.46-7.39.05-.44 1.18-11.82-1.24-.62c-1.69-.84-2.76-2.58-2.76-4.47v-3.91c0-.55.22-1.05.59-1.41.36-.37.86-.59 1.41-.59 1.1 0 2 .9 2 2z" fill="#f0d0b4"/></g><g><path d="m37.56 11.17c-.99-.74-2.22-1.17-3.56-1.17h-4v-3l-1-2 .34-.51c.27-.41.6-.78.96-1.1.32-.28.68-.53 1.05-.73.8-.43 1.71-.66 2.64-.66 2.77 0 5.27 1.12 7.08 2.93s2.93 4.31 2.93 7.08c0 .66-.07 1.32-.19 1.96l-.68 3.36c-.67-.81-1.7-1.33-2.84-1.33h-.29c0-1.98-.96-3.74-2.44-4.83z" fill="#b27946"/></g><g><path d="m43.13 17.33c.54.64.87 1.47.87 2.38 0 1.4-.79 2.69-2.05 3.31l-1.95.98v-3-4-1h.29c1.14 0 2.17.52 2.84 1.33z" fill="#f0d0b4"/></g><g><path d="m37.56 11.17c-.99-.74-2.22-1.17-3.56-1.17h-4-4c-1.34 0-2.57.43-3.56 1.17-1.48 1.09-2.44 2.85-2.44 4.83v8c0 3.57 1.88 6.71 4.7 8.48 1.53.96 3.35 1.52 5.3 1.52s3.77-.56 5.3-1.52c.65-.4 1.24-.88 1.77-1.41 1.81-1.81 2.93-4.31 2.93-7.07v-8c0-1.98-.96-3.74-2.44-4.83z" fill="#f0d0b4"/></g><g><path d="m40 17v4c0 .55-.45 1-1 1h-6c-.55 0-1-.45-1-1v-2-2c0-.55.45-1 1-1h6c.55 0 1 .45 1 1z" fill="#69d6f4"/></g><g><path d="m36 25.24v.76h-1-10-1v-.76c0-.9.36-1.7.95-2.29.54-.54 1.25-.88 2.05-.94.08-.01.16-.01.24-.01.5 0 .99.12 1.44.34l1.32.66 1.32-.66c.45-.22.94-.34 1.44-.34.08 0 .16 0 .24.01 1.68.12 3 1.52 3 3.23z" fill="#cf9e76"/></g><g><path d="m35.3 32.48.7 3.52-6 6-6-6 .7-3.52c1.53.96 3.35 1.52 5.3 1.52s3.77-.56 5.3-1.52z" fill="#f0d0b4"/></g><g><path d="m35 26-.66 1.32c-.41.82-1.04 1.49-1.79 1.96-.75.46-1.63.72-2.55.72-1.84 0-3.52-1.04-4.34-2.68l-.66-1.32z" fill="#ff826e"/></g><g><path d="m26 10c-1.34 0-2.57.43-3.56 1.17-1.48 1.09-2.44 2.85-2.44 4.83h-.29c-1.14 0-2.17.52-2.84 1.33l-.68-3.36c-.12-.64-.19-1.3-.19-1.96 0-2.77 1.12-5.27 2.93-7.08s4.31-2.93 7.08-2.93h.16c1.5 0 2.95.49 4.13 1.39-.36.32-.69.69-.96 1.1l-.34.51 1 2v3z" fill="#b27946"/></g><g><path d="m28 19v2c0 .55-.45 1-1 1h-6c-.55 0-1-.45-1-1v-4c0-.55.45-1 1-1h6c.55 0 1 .45 1 1z" fill="#69d6f4"/></g><g><path d="m20 21v3l-1.95-.98c-1.26-.62-2.05-1.91-2.05-3.31 0-.91.33-1.74.87-2.38.67-.81 1.7-1.33 2.84-1.33h.29v1z" fill="#f0d0b4"/></g><g><path d="m12 54h6v8h-6z" fill="#f0d0b4"/></g></g><g><path d="m58 15c-2.757 0-5 2.243-5 5v1.184c-.314-.112-.648-.184-1-.184-1.654 0-3 1.346-3 3v3.91c0 2.288 1.271 4.344 3.316 5.367l.62.31-.903 9.033-4.342-4.342c-1.438-1.439-3.346-2.356-5.37-2.581l-5.484-.609-.433-2.162c2.615-1.882 4.367-4.878 4.563-8.291l1.43-.715c1.606-.803 2.603-2.417 2.603-4.212 0-.968-.295-1.868-.798-2.618l.584-2.923c.142-.71.214-1.437.214-2.158 0-6.071-4.938-11.009-11.009-11.009-1.363 0-2.663.42-3.748 1.171-1.223-.745-2.634-1.171-4.071-1.171h-.163c-6.071 0-11.009 4.938-11.009 11.009 0 .722.072 1.448.214 2.159l.584 2.922c-.503.749-.798 1.65-.798 2.618 0 1.795.997 3.409 2.603 4.211l1.43.715c.196 3.413 1.948 6.409 4.563 8.291l-.437 2.185-3.855.551c-5.874.839-10.304 5.946-10.304 11.879v5.46c0 1.103.897 2 2 2v8h32v-11.844l9.921 8.395c1.104.934 2.51 1.449 3.956 1.449 3.376 0 6.123-2.747 6.123-6.124v-34.876c0-2.757-2.243-5-5-5zm-29.688 26.726-3.728 1.864-2.12-6.36 1.182-.169zm8.056-4.679 1.185.132-2.137 6.411-3.728-1.864zm-10.368-26.047h8c2.414 0 4.434 1.721 4.899 4h-5.899c-1.103 0-2 .897-2 2v1h-2v-1c0-1.103-.897-2-2-2h-5.899c.465-2.279 2.485-4 4.899-4zm3 10v-1h2v1c0 .128.015.253.038.375-.056.025-.114.045-.169.072l-.869.435-.869-.435c-.055-.027-.113-.047-.169-.072.023-.122.038-.247.038-.375zm-.764 2.236 1.764.882 1.764-.882c.309-.155.655-.236 1-.236 1.153 0 2.105.877 2.224 2h-9.975c.118-1.123 1.07-2 2.224-2 .344 0 .691.082.999.236zm-7.236-6.236h6v4h-6zm12.37 10c-.678 1.235-1.952 2-3.37 2s-2.692-.765-3.37-2zm-.37-6v-4h6v4zm8.503 1.13-.503.252v-5.276c1.149.314 2 1.356 2 2.602 0 1.033-.573 1.961-1.497 2.422zm-15.494-19.13h.163c.895 0 1.779.221 2.579.615-.081.107-.168.207-.242.319l-.341.511 1.664 1.109.341-.511c.852-1.279 2.28-2.043 3.818-2.043 4.968 0 9.009 4.042 9.009 9.009 0 .591-.059 1.185-.175 1.767l-.357 1.783c-.473-.249-.988-.418-1.539-.494-.214-1.589-.958-3.01-2.054-4.076l.956-1.433-1.664-1.109-.91 1.364c-.594-.314-1.237-.545-1.915-.677l.605-1.816-1.896-.633-.771 2.315h-2.28v-2h-2v2h-2.28l-.772-2.316-1.896.633.605 1.816c-.679.133-1.322.364-1.915.677l-.91-1.364-1.664 1.109.956 1.433c-1.096 1.067-1.84 2.488-2.054 4.076-.55.076-1.066.245-1.539.494l-.357-1.783c-.115-.581-.174-1.175-.174-1.766 0-4.967 4.041-9.009 9.009-9.009zm-9.009 16.708c0-1.247.851-2.289 2-2.602v5.276l-.503-.251c-.924-.462-1.497-1.39-1.497-2.423zm4 4.292v-1h2.653c-.407.651-.653 1.413-.653 2.236v1.764h1.382l.382.764c.998 1.996 3.005 3.236 5.236 3.236s4.238-1.24 5.236-3.236l.382-.764h1.382v-1.764c0-.823-.246-1.585-.653-2.236h2.653v1c0 4.962-4.037 9-9 9s-9-4.038-9-9zm9 11c1.635 0 3.182-.368 4.578-1.011l.336 1.682-4.914 4.915-4.914-4.915.336-1.682c1.396.643 2.943 1.011 4.578 1.011zm-17 20h4v6h-4zm28 6h-22v-12.414l-2.293-2.293-1.414 1.414 1.707 1.707v3.586h-6v-5.46c0-4.944 3.691-9.2 8.586-9.899l.866-.124 2.964 8.893 5.584-2.792v13.382h2v-13.382l5.584 2.792 3.001-9.006 2.515.279c1.574.175 3.058.888 4.177 2.008l5.354 5.354-5.427 6.202-2.729-2.309 1.232-1.232-1.414-1.414-2.293 2.294zm20-6.124c0 2.274-1.85 4.124-4.123 4.124-.975 0-1.92-.347-2.664-.976l-6.481-5.484 3.736-4.27-.463 4.63 1.99.199 2.068-20.686-1.853-.926c-1.363-.681-2.21-2.052-2.21-3.577v-3.91c0-.551.448-1 1-1s1 .449 1 1v2c0 1.103.897 2 2 2h2v-2h-2v-6c0-1.654 1.346-3 3-3s3 1.346 3 3z"/><path d="m33 53h2v2h-2z"/><path d="m33 49h2v2h-2z"/></g></g></svg>