<svg id="_x33_0" enable-background="new 0 0 64 64" height="512" viewBox="0 0 64 64" width="512" xmlns="http://www.w3.org/2000/svg"><g><g><g><path d="m40.99 53.25.61.15c1.41.35 2.4 1.62 2.4 3.08 0 .96-.44 1.87-1.19 2.47l-3.81 3.05-.07-.22c-.53-1.57-2.17-2.47-3.77-2.07l-1.16.29c.11-.33.16-.67.16-1 0-1.33-.83-2.56-2.16-3l2.49-.99c1.51-.61 2.51-2.08 2.51-3.72v-.39c0-1.06-.37-2.08-1.03-2.9h2.86c1.28 0 2.54-.13 3.77-.4v.01c-1.05 1.58-1.6 3.43-1.6 5.32 0 .11 0 .21-.01.32z" fill="#ecc19c"/></g><g><path d="m27.6 51.4c1.41.35 2.4 1.62 2.4 3.08 0 .96-.44 1.87-1.19 2.47l-3.81 3.05-.07-.22c-.53-1.57-2.17-2.47-3.77-2.07l-1.16.29c.11-.33.16-.67.16-1 0-1.33-.83-2.56-2.16-3l2.49-.99c1.51-.61 2.51-2.08 2.51-3.72v-4.14c1.25.78 2.59 1.41 4 1.88v3.9c0 .11 0 .21-.01.32z" fill="#ecc19c"/></g><g><path d="m24.39 26.33c3.69-4.03 8.92-6.33 14.4-6.33 1.47 0 2.93.17 4.36.5l10.85 2.5c-.18.7-.43 1.38-.76 2 2.47.06 4.83 1.07 6.59 2.83l.17.17-1.64 1.64c.68.31 1.29.72 1.82 1.23.87.83 1.52 1.91 1.82 3.13-1.6.32-3.09.96-4.39 1.87-1.31.91-2.43 2.09-3.28 3.47-2.64 4.29-6.91 7.24-11.73 8.26-1.23.27-2.49.4-3.77.4h-2.86-2.97c-2.1 0-4.11-.34-6-.97-1.41-.47-2.75-1.1-4-1.88-5.4-3.35-8.99-9.35-8.98-16.18.02-3.88.03-7.5.05-9.9.01-1.13-.25-2.24-.76-3.24-.33-.68-.78-1.3-1.33-1.85l-.09-.09c-.55-.55-1-1.19-1.31-1.89-.39-.83-.59-1.75-.59-2.68 0-.11 0-.21.01-.32 0-.34.02-.67.08-.99.47-3.4 3.39-6.01 6.92-6.01h.2c3.76 0 6.8 3.05 6.8 6.84v.3c0 1.89-.31 3.78-.9 5.57l-.57 1.69c-.35 1.06-.53 2.16-.53 3.3v.07c0 2.4.85 4.72 2.38 6.55z" fill="#fcd770"/></g><g><path d="m11.89 13.89.09.09c.55.55 1 1.17 1.33 1.85l-6.38-.64c-1.17-.11-2.17-.91-2.54-2.03l-.39-1.16h6.58c.31.7.76 1.34 1.31 1.89z" fill="#ff826e"/></g><g><path d="m10 9c-.01.11-.01.21-.01.32 0 .93.2 1.85.59 2.68h-6.58-.88c-.62 0-1.12-.5-1.12-1.12 0-.52.35-.97.85-1.09l7.15-1.79.08.01c-.06.32-.08.65-.08.99z" fill="#ff826e"/></g></g><g><path d="m62.97 33.757c-.445-1.78-1.531-3.303-2.988-4.326l1.432-1.431-.878-.878c-1.6-1.6-3.637-2.622-5.839-2.975.104-.296.197-.597.273-.904l.247-.988-11.842-2.733c-1.501-.347-3.042-.522-4.582-.522-5.351 0-10.476 2.095-14.296 5.786-.967-1.49-1.497-3.243-1.497-5.086 0-1.02.162-2.023.481-2.981l.563-1.689c.635-1.904.956-3.885.956-5.889v-.304c0-2.098-.811-4.067-2.282-5.545s-3.431-2.292-5.516-2.292c0 0 0 0-.001 0h-.204c-3.789 0-6.964 2.652-7.784 6.166l-6.605 1.651c-.947.237-1.608 1.084-1.608 2.06 0 1.171.952 2.123 2.123 2.123h.156l.158.473c.497 1.493 1.831 2.559 3.396 2.716l5.812.581c.286.72.435 1.492.427 2.287-.022 2.402-.038 6.028-.049 9.909-.015 5.348 2.057 10.378 5.833 14.164.97.972 2.024 1.828 3.143 2.57v3.593c0 1.234-.74 2.327-1.886 2.785l-5.02 2.008 2.59.863c1.131.377 1.745 1.604 1.368 2.735l-.576 1.728 2.926-.731c1.088-.274 2.22.348 2.576 1.413l.526 1.583 4.931-3.944c.418-.335.742-.75.999-1.201l1.249.416c1.131.377 1.745 1.604 1.368 2.735l-.576 1.728 2.926-.731c1.087-.273 2.221.348 2.576 1.413l.526 1.583 4.931-3.944c.997-.795 1.567-1.982 1.567-3.256 0-1.849-1.214-3.451-2.968-3.982.071-1.428.489-2.803 1.227-4.029 4.891-1.175 9.242-4.245 11.921-8.599 1.553-2.524 4.111-4.305 7.017-4.886l1.028-.206zm-59.97-22.88c0-.057.038-.106.093-.12l5.91-1.477c-.003.583.063 1.159.194 1.72h-6.074c-.068 0-.123-.055-.123-.123zm2.415 2.123h4.564c.328.578.726 1.119 1.204 1.597l.018.018-4.168-.417c-.723-.072-1.331-.541-1.618-1.198zm22.771 43.171-2.824 2.259c-.918-1.334-2.574-2.051-4.21-1.742-.07-.912-.44-1.776-1.042-2.456l.748-.299c1.908-.762 3.142-2.584 3.142-4.641v-2.443c.65.329 1.318.617 2 .872v3.208c0 1.068-.416 2.073-1.171 2.829l-.536.536 1.414 1.414.536-.536c.745-.745 1.265-1.653 1.537-2.642.734.358 1.22 1.103 1.22 1.946 0 .663-.297 1.281-.814 1.695zm2.715-.808c.062-.289.099-.585.099-.887 0-1.86-1.228-3.472-3-3.992v-2.135c1.616.414 3.288.651 5 .651h2.443c.356.568.557 1.225.557 1.9v.392c0 1.234-.74 2.327-1.886 2.785zm9.099-2.434c0 1.068-.416 2.073-1.171 2.829l-.536.536 1.414 1.414.536-.536c.745-.745 1.265-1.653 1.537-2.642.734.358 1.22 1.103 1.22 1.946 0 .663-.297 1.281-.814 1.695l-2.824 2.259c-.918-1.334-2.574-2.053-4.21-1.742-.07-.912-.44-1.776-1.042-2.456l.748-.299c1.908-.762 3.142-2.584 3.142-4.641v-.392c0-.651-.117-1.294-.336-1.9h1.171c.66 0 1.315-.044 1.966-.113-.524 1.277-.801 2.644-.801 4.042zm13.476-14.11c-3.106 5.046-8.716 8.181-14.642 8.181h-5.834c-4.81 0-9.33-1.876-12.727-5.282-3.398-3.407-5.262-7.934-5.249-12.746.011-3.876.026-7.498.049-9.896.02-2.183-.826-4.243-2.384-5.8l-.092-.092c-1.089-1.089-1.672-2.598-1.597-4.185 0-3.308 2.69-5.999 5.998-5.999h.204.001c1.549 0 3.004.605 4.098 1.703 1.095 1.101 1.699 2.569 1.699 4.134v.304c0 1.789-.287 3.557-.853 5.256l-.563 1.689c-.388 1.164-.584 2.379-.584 3.68 0 2.336.738 4.614 2.085 6.508l-1.833 2.062 1.495 1.329 2.158-2.428c3.523-3.964 8.585-6.237 13.888-6.237 1.388 0 2.779.158 4.132.471l9.794 2.26c-.714 1.824-2.079 3.331-3.855 4.219l-1.939.971 5.402 3.242c-1.636 1.324-3.576 2.198-5.677 2.548l-3.731.623 3.555 3.555c-1.936 1.363-4.286 2.111-6.658 2.111-6.438 0-12.413-3.198-15.984-8.555l-1.664 1.109c3.943 5.915 10.541 9.446 17.649 9.446 2.916 0 5.805-.964 8.135-2.714l1.57-1.178-2.441-2.441c2.905-.505 5.54-1.873 7.626-3.959l.906-.906-4.638-2.782c1.14-.789 2.09-1.808 2.809-2.979 1.765.159 3.424.845 4.778 1.982l-.452.453c-.311-.107-.629-.199-.957-.265l-.957-.191-.393 1.961.957.191c1.747.349 3.208 1.533 3.936 3.122-2.986.884-5.577 2.854-7.22 5.525z"/><path d="m36.438 37c.93 0 1.792-.42 2.365-1.154.572-.733.771-1.671.546-2.574l-.116-.464 1.733-.289c2.338-.389 4.034-2.391 4.034-4.761 0-2.081-1.327-3.921-3.3-4.579l-.383-.128-.633 1.897.384.128c1.155.386 1.932 1.464 1.932 2.682 0 1.388-.993 2.56-2.362 2.788l-3.871.646.642 2.566c.075.301.009.613-.182.857-.191.245-.478.385-.789.385-2.595 0-5.035-1.011-6.87-2.846l-.861-.861-1.414 1.414.861.861c2.213 2.213 5.155 3.432 8.284 3.432z"/><circle cx="16" cy="8" r="1"/></g></g></svg>